<?xml version="1.0" encoding="UTF-8"?><svg id="Layer_2" xmlns="http://www.w3.org/2000/svg" viewBox="0 0 174.71 109.03"><g id="Layer_1-2"><path d="M113.79,9.17c2.05,1.97,3.97,4.04,5.87,6.15,5.2,7.81,8.14,15.82,9.38,25.17.05.35-.05.53-.15.83,6.69-2.51,12.9-2.74,19.8-.93,3.66.96,6.5,2.62,9.83,4.29,2.66,1.98,5.24,4.33,7.55,6.71l2.77,3.86c11.12,17.56,4.75,42.62-15.35,49.82l-.14-.28c-.66-.06-.79-.11-.7.56-.09.02-.19-.02-.28,0-.18.05-.26.28-.28.28-.24.06-.6-.06-.84,0-1.15.27-2.55.36-3.7.64-.47.12-.9.09-.77.76-.18,0-.38,0-.56,0-.4-.02-1.58-.93-1.4.28-.28,0-.56,0-.84,0-.13,0-.77-.75-1.12.28-.18,0-.38-.02-.56,0-.6-.42-2.24-.63-1.96.28-.28.02-.56-.02-.84,0l-99.82.28c-.09,0-.19,0-.28,0-.83-.02-1.68.04-2.52,0,.16-.91-.46-.47-.98-.55-1.19-.16-2.16.03-2.94-.01-.28-.01-.56,0-.84,0,.16-.88-.44-.47-.96-.57-.94-.17-2.03-.17-2.68-.27-.18-.03-.38.03-.56,0,0-.16.07-.48-.01-.54-.13-.1-2.89-.78-3.06-.3-2.13-.69-4.04-1.79-6.15-2.52-2.03-1.26-4.24-2.76-6.15-4.19-.83-1.22-2.1-1.99-3.08-3.08-.09-.1-.19-.18-.28-.28s-.2-.18-.28-.28c-10.92-12.77-10.49-28.96-2.8-43.06,1.41-1.94,3.11-4.13,4.75-5.87.09-.1.19-.19.28-.28,9.32-9.56,18.93-10.72,31.59-8.67l3.35,1.12c3.02-15.51,13.45-29.47,28.24-35.37,13.79-5.5,27.73-3.1,39.42,5.73ZM87.23,8.61c-2.03.15-5.11.86-7.11,1.42-3.73,1.05-6.91,2.62-9.95,5.01-.16.1-.19.2-.28.28l-2.14,1.49c-.37.64-.97,1.09-1.5,1.58-.2.19-.37.38-.56.56-.1.09-.19.19-.28.28s-.19.19-.28.28c-.73.72-1.94,1.59-2.24,2.52-.09.1-.19.18-.28.28-.76.86-1.03,1.34-1.68,2.24-3.3,4.62-5.02,8.89-6.41,14.42-.6,2.4-1.06,8.13-2.67,9.64-3.2,3.01-7.22-1.19-10.42-2.46-18.18-7.22-34.08,11.95-32.79,29.29,1.04,13.89,12.52,21.91,25.16,24.33.85.16,1.77.48,2.66.56,32.32.5,64.72.41,97.02,0,.47,0,1.24.18,1.53-.28.09,0,.19,0,.28,0,1.99.02,3.68-.02,5.59-.28,1.38-.19,2.84-.53,4.19-.84,11.07-2.54,18.8-8.76,20.69-20.41,2.95-18.14-15.54-37.41-33.54-29.49-2.6,1.14-4.99,3.7-7.71,3.78-.56.02-.86-.23-1.24-.3-2.27-1.52-1.97-2.14-2.24-4.47.16-4.87-.05-9.46-1.36-14.16-.16-.58.24-.92-.59-.38-1.58-5.7-4.86-13.46-9.79-17.06l-2.69-2.47c-4.35-3.06-9.11-4.5-14.37-5.08-.97-1.02-3.76-.64-5.03-.28Z" fill="#2b293a"/><path d="M24.88,105.91c.96.31,2.08.68,3.08.84.18.03.38-.03.56,0,1,.37,2.59.81,3.63.84.28,0,.56-.01.84,0,1.19.27,2.69.5,3.91.56.83.04,1.68-.02,2.52,0,.29.46,1.06.28,1.53.28,30.7.38,61.43-.3,92.13,0l.56.28c-30.88,1.03-62.32-.78-93.26.01-7.68-.38-15.02-1.22-21.66-5.32,2.11.73,4.02,1.83,6.15,2.52Z" fill="#f9ea68"/><path d="M119.66,15.32c2.54,2.82,4.68,6.77,6.15,10.48,1.91,4.82,3,9.81,3.63,14.96,2.53-.76,5.03-1.75,7.69-1.96,7.52-.58,15.38,1.39,21.39,5.87-3.33-1.67-6.17-3.32-9.83-4.29-6.9-1.81-13.11-1.58-19.8.93.11-.31.2-.48.15-.83-1.24-9.35-4.18-17.36-9.38-25.17Z" fill="#f1d961"/><path d="M6.15,52.5c-7.69,14.09-8.12,30.29,2.8,43.06h-.28c-1.59-1.33-4.83-6.67-5.73-8.67-4.8-10.71-3.7-24.9,3.21-34.39Z" fill="#f1d961"/><path d="M43.33,37.69c.87.12,1.71.14,2.51.56,1.8-7.87,4.75-15.03,9.93-21.25C65.06,5.82,78.57-1.48,93.49.25c7.42.86,15.09,3.88,20.31,8.91C102.1.34,88.17-2.06,74.37,3.44c-14.8,5.89-25.23,19.86-28.24,35.37l-3.35-1.12c.18.03.38-.03.56,0Z" fill="#f1d961"/><path d="M166.08,51.39c10.94,11.31,11.47,31.38,1.67,43.68-8.7,10.9-20.82,13.19-34.1,13.64l-.56-.28v-.28c2.19-.05,4.25-.13,6.43-.28.28-.02.56.02.84,0,.65-.05,1.29-.22,1.96-.28.18-.02.37,0,.56,0,.37-.02.92.15,1.12-.28.28,0,.56,0,.84,0,.48,0,.94-.17,1.4-.28.18,0,.38,0,.56,0,1.27-.05,3.25-.92,4.47-1.4.24-.06.6.06.84,0l.28-.28c.09-.02.19.02.28,0,.3-.08.55-.18.84-.28,20.1-7.2,26.47-32.26,15.35-49.82l-2.77-3.86Z" fill="#f1d961"/><path d="M43.33,37.69c-.18-.03-.38.03-.56,0-12.67-2.06-22.27-.89-31.59,8.67.3-.82.92-1.39,1.55-1.95,8.08-7.19,20.23-10.74,30.61-6.72Z" fill="#f8e263"/><path d="M10.9,46.63c-1.64,1.74-3.34,3.93-4.75,5.87,1.15-2.1,2.73-4.57,4.75-5.87Z" fill="#f8e263"/><path d="M113.79,9.17c2.43,1.84,4.2,3.65,5.87,6.15-1.9-2.11-3.83-4.18-5.87-6.15Z" fill="#f8e263"/><path d="M12.58,99.2c-1.1-.83-2.58-1.72-3.08-3.08.98,1.08,2.24,1.86,3.08,3.08Z" fill="#f8e263"/><path d="M9.22,95.84c-.25.01-.38-.13-.56-.28h.28c.08.1.19.18.28.28Z" fill="#f8e263"/><path d="M70.17,15.04c13.93-8.56,26.66-7.72,39.14,1.4,4.92,3.59,8.21,11.36,9.79,17.06.07.27.2.53.28.84-.5.23-.12.92-.05,1.3.32,1.65.71,3.32.88,4.99.28,2.66-.13,6.8.35,9.16.2.97,1.26,2.5,2.21,2.87.37.14.5-.15.52-.15.38.07.69.31,1.24.3,2.72-.08,5.11-2.64,7.71-3.78,18-7.92,36.49,11.35,33.54,29.49-1.65,4.12-4,7.5-7.57,10.18-7.79,5.85-17.51,6.54-26.94,6.89-29.93-1.07-60.79,1.37-90.62,0-12.14-.56-26.99-5.05-31.04-17.89-.21-.68.1-2.35-.96-2.25-1.29-17.34,14.61-36.51,32.79-29.29,3.2,1.27,7.23,5.47,10.42,2.46,1.6-1.51,2.06-7.24,2.67-9.64,1.39-5.53,3.11-9.8,6.41-14.42l.27.28,1.4-2.52c.09-.1.19-.18.28-.28.03-.03.35.09.49-.06.47-.5,1.18-1.88,1.74-2.46.09-.09.19-.19.28-.28l.28-.28c.19-.18.36-.37.56-.56,1.26-.64,2.47-1.7,3.56-2.6.13-.11.03-.45.07-.48.09-.08.12-.18.28-.28Z" fill="#fae4ba"/><path d="M8.66,75.43c1.06-.1.75,1.57.96,2.25,4.05,12.84,18.89,17.33,31.04,17.89,29.82,1.38,60.69-1.07,90.62,0,9.44-.34,19.16-1.04,26.94-6.89,3.57-2.68,5.92-6.06,7.57-10.18-1.89,11.65-9.62,17.87-20.69,20.41-.72-.64-1.85.17-2.69.25-8.1.79-17.12.49-25.27.59-25.39.3-50.81-.32-76.19,0-.47,0-1.24-.18-1.53.28-1.88-.05-3.71-.34-5.59-.28-12.64-2.41-24.13-10.44-25.16-24.33Z" fill="#f2d399"/><path d="M39.42,100.04c25.67.68,51.99.01,77.73,0,2.7,0,5.41.02,8.11,0,.88,0,2.15.23,2.8-.28,1.12,0,2.24,0,3.36,0l.42.28.14-.28c.47,0,.93,0,1.4,0,.3.47,1.15.27,1.68.28-.29.46-1.06.28-1.53.28-32.3.4-64.71.49-97.02,0-.89-.08-1.81-.4-2.66-.56,1.88-.06,3.72.23,5.59.28Z" fill="#17162f"/><path d="M139.52,107.87c-2.18.15-4.24.23-6.43.28-30.67.64-62.7.58-93.39,0l99.82-.28Z" fill="#161630"/><path d="M133.08,108.14v.28c-30.7-.29-61.43.39-92.13,0-.47,0-1.24.18-1.53-.28.09,0,.19,0,.28,0,30.68.58,62.71.64,93.39,0Z" fill="#81654a"/><path d="M92.26,8.89c5.26.58,10.02,2.02,14.37,5.08l2.69,2.47c-12.49-9.12-25.21-9.95-39.14-1.4,3.03-2.39,6.22-3.96,9.95-5.01,2-.56,5.08-1.27,7.11-1.42,1.77-.13,3.32.09,5.03.28Z" fill="#e8dec4"/><path d="M145.11,98.92c-1.36.31-2.82.65-4.19.84h-5.59c-.65,0-1.31,0-1.96,0-.47,0-.93,0-1.4,0-.19,0-.37,0-.56,0-1.12,0-2.24,0-3.36,0-.88,0-2.15-.23-2.8.28-2.7.02-5.41,0-8.11,0v-.28c8.15-.1,17.17.2,25.27-.59.83-.08,1.97-.89,2.69-.25Z" fill="#f8edb1"/><path d="M121.06,48.03c.26,2.33-.04,2.95,2.24,4.47-.03,0-.16.29-.52.15-.94-.37-2.01-1.9-2.21-2.87-.48-2.36-.07-6.5-.35-9.16-.17-1.67-.57-3.35-.88-4.99-.07-.38-.45-1.07.05-1.3,1.25,5,1.13,8.81,1.68,13.7Z" fill="#e8dec4"/><path d="M121.06,48.03c-.55-4.89-.42-8.7-1.68-13.7-.08-.31-.21-.57-.28-.84.83-.54.43-.2.59.38,1.31,4.7,1.53,9.28,1.36,14.16Z" fill="#1a1824"/><path d="M32.99,107.59c.77.04,1.74-.15,2.94.01.52.07,1.14-.36.98.55-1.22-.06-2.73-.29-3.91-.56Z" fill="#161630"/><path d="M92.26,8.89c-1.72-.19-3.26-.41-5.03-.28,1.27-.36,4.07-.74,5.03.28Z" fill="#1a1824"/><path d="M28.51,106.75c.65.1,1.73.1,2.68.27.52.09,1.12-.32.96.57-1.05-.03-2.63-.47-3.63-.84Z" fill="#161630"/><path d="M151.26,105.63c-1.22.48-3.2,1.34-4.47,1.4-.13-.66.29-.64.77-.76,1.15-.29,2.55-.38,3.7-.64Z" fill="#161630"/><path d="M140.91,99.76c-1.91.26-3.6.3-5.59.28v-.28h5.59Z" fill="#17162f"/><path d="M24.88,105.91c.17-.48,2.94.2,3.06.3.08.06,0,.38.01.54-.99-.16-2.11-.53-3.08-.84Z" fill="#161630"/><path d="M142.31,107.59c-.67.06-1.3.23-1.96.28-.28-.91,1.35-.7,1.96-.28Z" fill="#161630"/><path d="M146.23,107.03c-.46.11-.92.28-1.4.28-.18-1.21,1-.3,1.4-.28Z" fill="#161630"/><path d="M135.32,99.76v.28c-.09,0-.19,0-.28,0-.53,0-1.37.19-1.68-.28.65,0,1.31,0,1.96,0Z" fill="#5c5354"/><path d="M143.99,107.31c-.19.42-.75.26-1.12.28.34-1.03.99-.28,1.12-.28Z" fill="#161630"/><path d="M69.9,15.32s.06.37-.07.48c-1.1.89-2.31,1.96-3.56,2.6.53-.49,1.13-.94,1.5-1.58l2.14-1.49Z" fill="#e8dec4"/><path d="M153.5,105.07c-.29.1-.54.19-.84.28-.09-.66.04-.62.7-.56l.14.28Z" fill="#161630"/><path d="M62.63,22.31l-1.4,2.52-.27-.28c.64-.9.92-1.38,1.68-2.24Z" fill="#e8dec4"/><path d="M65.14,19.51c-.57.58-1.27,1.96-1.74,2.46-.14.15-.46.03-.49.06.3-.93,1.51-1.8,2.24-2.52Z" fill="#e8dec4"/><path d="M65.42,19.23c.09-.09.18-.19.28-.28l-.28.28Z" fill="#e8dec4"/><path d="M152.1,105.63s.1-.23.28-.28l-.28.28Z" fill="#161630"/><path d="M117.15,99.76v.28c-25.74.01-52.05.68-77.73,0,.29-.46,1.06-.28,1.53-.28,25.39-.31,50.81.31,76.19,0Z" fill="#fcf5b6"/><path d="M128.05,99.76c-.64.51-1.92.27-2.8.28.64-.51,1.92-.27,2.8-.28Z" fill="#5c5354"/><path d="M131.97,99.76l-.14.28-.42-.28c.19,0,.37,0,.56,0Z" fill="#5c5354"/></g></svg>