<?xml version="1.0" encoding="UTF-8"?><svg id="Layer_2" xmlns="http://www.w3.org/2000/svg" viewBox="0 0 411.89 410.65"><g id="Layer_1-2"><path d="M315.6,108.87c.01-.19-.01-.38,0-.57h.57c-.06.27-.3.49-.57.57Z" fill="#25243c"/><path d="M93.82,32.67c10.37-5.95,20.77-11.65,31.86-16.19,80.21-32.85,173.36-12.84,232,49.74.18.2.39.37.57.57,2.72,2.95,4.91,6.43,7.96,9.1,2.76,3.72,5.72,7.6,8.53,11.37,32.7,47.96,44.05,108.06,31,164.92-4.01,17.46-10.76,33.98-18.49,50.04-13.08,22.6-29.26,42.37-48.91,59.71l-17.28,12.86c-50.94,33.36-113.54,44.25-172.52,27.1-24.76-7.2-47.59-19.25-68.38-34.27-5.94-4.89-11.95-10.16-17.63-15.35l-4.55-4.55c-9.24-10.12-17.89-21.07-25.59-32.41-5.47-10.14-11.17-20.07-15.62-30.73C-7.62,226.19-3.72,158.44,27.19,103.37c3.41-6.07,7.55-11.72,10.9-17.82,15.83-21.13,33.96-38.01,55.73-52.89ZM344.04,164.6l-2.45-2.39c-23.61-8.27-38.83-18.79-36.79-46.22.32-4.27,2.16-8.51,2.65-12.05.09-.61-.29-5.8-.42-6.69-.47-3.17-3.02-4.18-4.6-6.47-1.22.36-2.51.46-3.72.92-1.69.64-2.86,2.09-4.08,2.72-1.55.81-3.29,1.87-4.39,2.43-5.45,2.78-8.15,2.34-13.85.88-3.38-.87-7.38-2.22-10.66-4.12s-5.66-5.05-6.88-8.48c-.61-1.7-.67-3.58-.75-5.01-.04-.83-.99-1.55-1.13-2.81-.21-1.83.64-3.43.66-5.13.06-4.88-1.62-10.81-1.81-15.35-.36-8.37,2.15-18.8,6.07-25.83,1.33-2.37,6.96-8.19,4.8-10.58-.56-.62-8.6-3.13-10.11-3.54-27.57-7.45-63.7-8.37-91.38-2.67-4.34.89-8.83,2.76-13.36,3.14-.15.35-.01.73-.03,1.09-.13,2.11.96,1.73,2.27,3.41l4.16,8.11c1.98,7.07,2.1,13.91-.46,20.9l-4.28,9.66c-.55.87-1.17,2.13-1.71,2.84l-5.69,5.69c-2.67,1.98-5.76,3.79-8.53,5.69-3.96,1.66-8.22,3.56-11.94,5.69l-1.13-1.14c-.09.33.1,1.03,0,1.14-.07.07-1.09.24-1.72.81-3.21,2.94-3.94,3.79-3.38,8.46.02.13,1.57,1.75,1.64,1.96,1.62,4.65,2.61,9.87,2.35,14.61-.02.36-1.07.24-1.08.57-.12,3.61-.98,5.71-3.24,8.83-4.96,6.82-15.37,11.65-24.17,14.4-7.18,2.25-20.25,4.4-26.3,10.02-.18.17-2.21,3.4-2.1,4.03-.49.52-1.15,1.57-1.71,2.27-.02.03-.34-.65-.8-.03-1.44,1.91-3.79,8.27-4.17,10.7-2.43,15.81,1.21,32.06,8.54,45.47l4.39,3.57c.23.27.76.72,1.14,1.14,3.5,3.8,10.36,8.49,15.23,10.76.95.44,2.97.6,4.1,1.19,6.54,3.88,10.82,6.74,15.35,13.08,3.44,4.8,5.3,11.34,9.67,14.79-1.29.26,1.64,1.83,1.77,1.92,5.34,3.7,11.3,5.89,16.99,8.88.15.08.42-.08.57,0-.33,1.42.77,1.14,1.5,1.6,2.72,1.73,5.29,3.78,8.17,5.22.19.19.38.38.57.57,4.99,5.06,7.55,8.94,8.54,16.15.06.41,1.07.29,1.14.71.19,1.15-.46,8.72-.83,10.04-1.05,3.84-3.61,7.88-4.88,11.21-2.68,1.39-2.97,3.76-4.75,6.03s-2.03,1.57-3.21,4.21c-.9,2.01-2.58,3.49-3.98,5.12-1.35.57-1.96,1.93-2.84,2.84-.19.19-.38.37-.57.57-.71.75-1.51,1.37-2.27,2.27-2.29,2.73-5.1,6.01-6.82,9.1-.24-.9-1.63.92-1.68,1.01-6.33,12.01-4.51,23.59-3.45,36.25.31,3.72-1.38,8.89,2.08,11,13.8,8.38,39.88,14.45,56.1,16.8,17.81,2.58,31.63.94,49.59-.11,10.48-.61,27.12-4.57,37.94-8.24,8.94-3.03,17.44-7.87,26.24-11.29,1.13-.57,1.68-1.5,1.5-2.76-.41-.15-.51.58-.56.57-.77-.12-.83-.85-1.14-1.14l-1.73-2.97c-7.33-8.6-11.32-23.64-5.07-34.69.46-.81,4.14-4.06,4.4-4.55.42-.79-.18-1.83.27-2.6.35-.6,2.55-2.33,2.99-2.95,3.96-5.56,3.3-9.32,3.18-15.58-.02-.98.66-2.17.58-3.5-.07-1.1-1.25-.59-1.27-1.66-.21-12.81-1.33-26.29,5.52-36.63l1.94-5.76c1.35-1.98,3.13-3.68,3.98-5.69,1.24-1.32,2.68-2.62,3.98-3.98,2.69-1.29,4.82-3.51,7.39-5.12,1.91,1.35,3.22-1.39,3.83-1.72,7.73-4.2,19.17-5.87,27.86-3.57,10.08,2.67,14.66,9.06,26.47,4.59,4.36-1.65,5.83-2.93,8.95-6.12.19-.19.38-.38.57-.57,2.14.48,1.4-.62,1.89-1.22,2.4-2.97,8.44-9.44,9.35-12.84s1.68-11.97,1.84-15.79c.08-1.83.56-8.83-.92-9.3-1.88-.6-6.81-.39-9.34-.9s-7.45-2.22-10.21-3.16c-1-.34-2.55-.71-3.41-1.14-9.79-4.87-13.62-15.06-19.9-22.75-1.51-1.85-2.78-3-4.55-4.55-2.59-2.26-5.45-4.55-8.53-6.26ZM73.35,62.81c-.93.86-1.91,1.95-2.84,2.84-.19.18-.38.38-.57.57s-.38.38-.57.57-.38.38-.57.57c-2.86,2.8-5.85,5.58-8.53,8.53-13.62,15-22.63,30.13-31.28,48.34-2.04,4.3-3.58,8.81-5.69,13.08-.7,1.43-1.28,2.14-1.96,3.84-.12.31-1.15-.35-.65,1.3,1.29,4.24,8.72,5.51,9.03,10.61l2.68,2.45c.03.18-.03.38,0,.57.82,6.02,2.94,12.81,2.9,19.09,0,.35,1.08.09,1.09.53.04,1.02-1.42,1.63-1.15,1.98.04.05,1.01-.17,1.14.37.19.79-.19,1.81,0,2.66.09.43,1.02.34,1.12.77.98,4.35,2.02,8.44,3.68,12.75.34.89-.02,1.98,1.45,1.65.05.17-.05.4,0,.57,1.43,4.63,2.57,8.72,5.52,12.91.58.82.88,1.05,1.87,1.31.07.16-.07.41,0,.57,1.43,3.1,4.91,8.68,5.53,11.82.34,1.72-.14,3.47.17,4.85.1.45,1.04.16,1.17,1.21.49,3.83-1.52,7.54-2.08,11.13-1.22,7.71-2.36,16.01-.33,23.71.38,1.44-.25,1.51,1.79,1.31.05.18-.05.39,0,.57.44,1.69.18,4.84,2.84,5.12.07.16-.07.41,0,.57.44.93,3.19,7.05,3.52,7.31.45.34,1.37-.04,1.6.09,1.82,1,2.7,3.03,3.98,4.55-1.25.32.13.71.57,1.14.42.41.73.68,1.14,1.14.01,1.85,2.25,4.22,3.98,5.12.07.16-.08.43,0,.57,7.48,14,8.04,21.05,10.8,37.32.3,1.75-1.82,2.85,1.14,2.49.03.19-.03.38,0,.57-1.63-.34-1.22.93-1.16,1.99.34,6.36,3.68,16.64,6.69,22.32,1.16,2.2,2.29,4.11,3.91,6.35.11.15,1.69,3.03,1.94,1.76.71,1.02,3.27,3.26,3.41,3.98,0,.04-.63.23-.57.56.36.08.86-.08,1.14.01.55.18.79.42,1.14.57-.3,1.22,3.11,2.2,4.55,2.84.41.18.8.43,1.14.57.42,2.38,3.74,2.42,5.68,2.84.65-.67-1.07-10.36-1.16-12.2-.71-14.19,1.22-23.25,7.42-35.57.08-.15-.08-.42,0-.57,2.15-.22,2.51-3.39,3.97-4.84l-.56-.28c2.52-3.64,5.56-7.54,8.53-10.8l5.12-5.12c4.25-4.42,8.78-8.46,10.53-14.77,6.08-21.85-25.02-26.82-36.7-37.82-6.46-6.09-9.42-15.89-16.22-21.88-7.12-6.28-17.71-8.73-25.29-14.8-.24-.19-.69-.75-1.14-1.14-.53-.46-1.74-1.7-2.27-2.27-.51-.54-1.42-1.35-1.71-1.71-2.08-2.53-7.96-11.86-8.53-14.79-2.87-14.82-6.54-27.79-3.73-43.25.51-2.82,2.21-4.78,2.74-6.98.26-1.07.28-1.43-.71-2.09.48-1.31.76-1.98,1.14-3.41,1.65-.76,1.73-2.16,2.84-3.41,16.94-19.07,42.6-12.5,54.59-30.14.15-.23.45-.38.57-.57.07-.1.67-.11,1-.97,2.84-7.37-4.58-14.13-3.7-21.34.33-2.66,1.88-4.68,2.93-7.04l7.74-6.48c8.8-5.12,16.59-7.01,23.32-15.35,6.32-7.83,9.32-20.02,1.71-27.87-2.67-2.75-4.74-4.37-8.73-4.97-23.62,9.32-45.37,22.51-64.06,39.66ZM292.29,30.97c1.14-.01-.64-1.45-.71-1.48-2.19-.91-5.12-2.55-6.54-3.02-.92-.3-6.11-1.67-6.7-1.69-.27,0-2.25,4.01-4.24,2.2.97,3.72-1.89,3.8-2.89,5.37-.45.7-1.46,3.3-1.66,4.31-.08.14.08.42,0,.57-2.52-.62-1.64,1.95-2.32,3.54-1.81,4.21-3.89,15.92-2.78,20.52.1.42,1,.34,1.11.78,1.03,4.19-.38,11.61.14,16.21.08.72,1.95,5.55,2.25,6.03.18.29,1.55.48,2.15.98.81.68,2.29,2.59,2.88,2.85.83.37,1.48-.35,1.91-.31.48.04.45,1.15,1.3,1.58.66.34,5.87,1.26,6.73,1.25,3.75-.04,3.39-2.2,4.86-3.11.54-.33,1.38-.15,1.77-.37,5.25-3.01,8.43-6.02,15.46-5.06.19.03,1.26,2.63,3.21.59,1.54.71,2.41,1.9,3.98,2.27,1.19,1.43,3.35,5.07,3.98,6.82l.02,11.11c-.41,1.79-.47,3.56-.59,5.38-2.2,5.67-2.65,16.83-.76,22.67.42,1.3,1.13,1.42,1.33,1.79.22.4.41.88.57,1.14l-.56.28c1.02.8,1.29,2.84,1.87,3.54.38.47,1.25.46,1.53.73,2.13,2,4.3,4.15,6.82,5.69,6.21,3.78,13.99,6.34,20.48,9.94,3.09,1.71,5.86,3.98,9.09,5.41.2.17.37.39.57.57s.37.39.57.57c8.61,7.77,12,17.1,19.33,23.88,2.08,1.92,10.16,6.21,10.24,6.82,0,.05-.5.3-.58.54,4.55,1.66,9.04,2.71,13.94,2.31.82-.28-.27-.54-.28-.57-.09-.3.06-.78,0-1.14,1.05-2.73.32-6.93,0-9.95-1.86-17.41-5.93-34.43-13.07-50.33-3.51-7.82-7.57-16.21-11.94-23.88-17.71-31.11-49.87-62.1-82.46-77.34ZM19.32,153.8c-.25-.35-.06-1.65-1.13-1.7-1.72,5.02-3.56,9.89-4.48,15.15-3.97,22.86-4.13,43.41-.85,66.54.5,3.53.34,7.53,1.37,11.15.14.49,1.11.43,1.12.75.07,3.86.64,3.87,1.61,7.45,3.78,13.96,7.87,27.32,15.13,40.57.15.28.99,2.39,1.44,1.12,1.68,3.26,3.8,6.51,5.69,9.67,2.36,3.95,4.86,7.18,7.39,10.8,4.04,5.79,7.15,10.54,11.94,15.92.84.94,1.5,1.48,2.27,2.27.38.39.77.76,1.14,1.14.51.52.76,1.45,1.71,1.71.19.38.38.76.57,1.14.02.04-.52.17-.07.83.81,1.19,2.88,2.74,4.05,3.72.58.65,1.54,1.49,2.27,2.27,1.73,1.83,3.19,4.19,5.69,5.12.18.19.38.39.57.57l1.99,2.26c2.09.03-.6-9.16-.78-10.58-.33-2.56-1.08-7.43-1.16-9.59-.04-1.29,1.21-2.39,1.08-3.71-2.52,1.48-.97-2.27-1.08-3.7-.67-9.48-4.32-18.42-8.98-26.31-.49-.83-.95-4.66-2.45-2.97-1.3-1.86-3.12-3.76-4.55-5.69,1.28-1.84-1.66-3.03-2.24-3.73-9.64-11.57-15.38-27.93-12.43-42.49.63-3.12,2.3-7.22,2.7-10.39,1.2-9.32-4.1-12.89-7.75-19.48-4.17-7.53-8.32-18.17-10.51-26.47-2.93-11.11-1.86-23.01-9.58-31.65-.51-.57-1.02-.73-1.71-1.71ZM391.24,252.18c-.19.05-.42-.06-.57,0-.03.01-.13-.49-.54-.3-1.39.65-4.42,3.13-5.71,4.28-.39.2-.73.38-1.14.57l-10.02,2.2c-1.11.17-2.22.14-3.33.07-5.09-.32-11.16-3.23-16.22-4.54-.18-.05-.39.04-.57,0-.39-1.04-1.02-1.34-2-1.69-6.16-2.22-11.75-1.8-17.92.28-.92.31-2.01-.1-1.68,1.41-.17.05-.4-.05-.57,0-1.42.44-1.6,1.1-1.71,1.14-.17.06-.41-.06-.57,0-3.42,1.33-3.19,1.27-6.26,3.98-.2.17-.38.38-.57.57-.3.31-.79.78-1.14,1.14-1.73,1.82-4.1,3.98-5.12,6.26-.18.2-.4.36-.57.57-1.56,1.88-3.49,3.77-3.98,6.26-.18.01-.4.03-.57,0-.1-.01-.12-.71-.56-.57,0,.86-.3,1.68-.75,2.4-10.08,15.93,2.42,33.17-2.84,47.75-.81,2.25-1.71,1.85-2.67,5.01-2.99,9.86-12.45,13.01-10.24,25.59.03.18-.04.39,0,.57.86,3.92,3.7,8.87,6.26,11.94,1.14,1.37,3.83,4.77,5.68,4.32,2.34-.56,10.74-6.64,13.26-8.41,20.27-14.18,39.58-34.67,52.71-55.63,2.95-4.7,5.93-9.62,7.96-14.79.38-.38.65-.84,1.14-1.14.03-.02.27.51.49.53,1.54-2.93,2.41-6.09,3.49-9.06.06-.17-.06-.4,0-.57.01-.04.44-.19.57-.57.06-.17-.06-.4,0-.57l2.65-2.97c2.99-8.81,5.27-16.26,7.61-26.18.11-.47,1.09-.4,1.1-.75.03-.82-.95-1.86,0-3.07-.36.03-.84-.09-1.14,0-1.08.29-3.2,2.97-3.98,3.98Z" fill="#25243c"/><path d="M93.82,32.67C173.14-21.55,291.64-6.35,356.27,63.94c.65.7,1.42,1.17,1.41,2.28C299.04,3.64,205.89-16.36,125.68,16.48c-11.09,4.54-21.5,10.24-31.86,16.19Z" fill="#f0d960"/><path d="M338.35,361.93c-70.4,62.13-185.21,65.72-258.18,5.69,20.79,15.02,43.61,27.07,68.38,34.27,58.99,17.14,121.58,6.26,172.52-27.1l17.28-12.86Z" fill="#f0d960"/><path d="M374.74,87.26c44.07,59.31,49.8,150.55,12.51,214.96,7.73-16.06,14.48-32.58,18.49-50.04,13.05-56.87,1.7-116.96-31-164.92Z" fill="#f0d960"/><path d="M32.4,315.3C-12.94,248.45-10.37,150.24,38.09,85.56c-3.35,6.1-7.49,11.74-10.9,17.82C-3.72,158.44-7.62,226.19,16.78,284.58c4.45,10.66,10.15,20.58,15.62,30.73Z" fill="#f0d960"/><path d="M358.25,66.79l6.26,6.13c.71.84,1.1,2.15,1.71,2.97-3.05-2.66-5.24-6.15-7.96-9.1Z" fill="#f0d960"/><path d="M62.54,352.27c-1.9-1.74-2.92-2.77-4.55-4.55l4.55,4.55Z" fill="#f0d960"/><path d="M177.98,13.34c2.38,1.8,4.45.16,6.52-.02,18.7-1.66,40.14-.92,58.44,2.45,5.33.98,10.42,3.06,15.09,4.36.94.26,7.26.91,7.52,1.18-2.37,6.75-7.54,12.02-9.1,19.33-.04.18.04.39,0,.57-1.18,1.04-1.47,3.42-1.64,4.9-.68,6.19-.18,11.72-.07,17.84.07,4.02.64,8.86.5,12.83-.04,1.25-1.2,1.85-1.07,3.09,2.96-.83,1.42,3.34,2.1,4.98.29.68,1.07.55,1.29,1.15.57,1.52-.94,1.46,1.15,1.83,1.35,3.36,4.19,6.11,7.39,7.96s9.35,4.24,13.08,4.55c.19.02.38,0,.57,0,4.03,1.79,7.19.34,10.74-1.49.12-.06,2.91-1.54,1.77-1.92,1.93-1.14,3.67-2.92,5.69-3.98,1.46.84,2.93-.12,4.71.71.42.19,2.31,2.18,2.45,2.68.19.67.25,6.9.12,7.57-.78,3.96-1.96,7.84-2.16,12.35-.43,9.75.1,17.35,5.69,25.59,1.17,1.73,3.8,5.26,5.12,6.82,8.73,10.36,27.64,12.64,38.1,22.18l5.12,4.55c6.28,7.68,10.11,17.88,19.9,22.75l1.62,2.2c3.71.81,6.72,2.95,10.32,3.49-1.52,15.22-5.9,29.83-11.94,43.79-12.45,3.29-17.35-3.99-27.98-5.87-4.45-.79-13.86.09-18.27,1.32-.47.13-.39,2.06-1.52,1.13-.21-.17.47-1.36-.56-1.13-.57,2.14-4.84,3.03-6.65,4.16-3.45,2.15-6.5,4.87-9.28,7.78-1.3,1.36-2.74,2.66-3.98,3.98-5.56,5.92-9.84,12.28-11.63,19.9-.36,1.51-1.8,3.66-.31,5.12-.03.18.03.38,0,.57-2.09-.47-.74,2.02-1.14,3.6-.22.86-.56-.8-.56,1.8v11.37c0,.7.49,2.89.57,4.27.3,5.34,1.19,8.69.31,14.15-.11.67.31,1.56.26,1.77-.28,1.12-3.12,5.35-3.98,6.82-1.95,3.34-4.14,7.46-6.82,10.24-.07.07-.69-.19-1,.12-1.47,1.45-3.28,10.12-2.41,12.39-1.73-1.3-.91.33-1.14.57-2.07,2.15-26.25,10.57-30.59,11.78-32.05,8.97-90.23,11.68-120.68-2.68-1.9-.89-1.51-.61-3.41-1.14-.74-.21-1.55-.31-2.27-.57-.18-.06-.36-.44-.57-.57l.61-11.57c1.39-7.56,4.1-13.15,8.47-19.44.6-.87,2.34-.55,1.72-2.54,1.09-.62,2.19-1.49,2.27-2.84.18-.2.38-.38.57-.57.63-.7,2.22-1.3,2.7-1.87.28-.33.07-.89.14-.98,1.4-1.63,3.08-3.1,3.98-5.12,2.21-1.71,4.67-4.44,6.22-6.71,1.17-1.7,1.09-1.82,1.74-3.53,1.03-.53,2.17-1.61,2.84-2.84,2.54-.56.91-1.13,1.63-2.59,1.16-2.35.79-.36,1.56-3.56.32-1.32,1.3-1.25,1.36-1.63.9-5.2-.14-15.7-3.37-20.29-.42-.6-1.1-.27-1.18-.35-2.37-2.18-3.81-5.41-6.82-6.82-.19-.19-.38-.38-.57-.57-2.6-2.56-6.37-5.11-9.67-6.82-.15-.08-.42.08-.57,0-5.72-4.28-13.16-6.38-18.77-10.8-4.37-3.44-6.23-9.98-9.67-14.79.98-.16-.71-1.99-.91-2.22-1.08-1.28-3.15-2.85-3.78-4.18-.42-.9-.34-2.6-.43-2.7-.29-.3-1.9.7-2.31.34-.52-.45-.35-1.66-.65-1.93-.33-.29-1.74-.14-2.57-.55-1.1-.56-8.53-4.83-8.89-5.22-.52-.56-.26-1.44-.47-1.61-.27-.23-5.43-1.42-6.76-2.09-2.7-1.36-3.91-3.67-6.8-4.86-.18-.2-.37-.39-.57-.57-.9-.79-2.75-2.54-3.41-3.41-3.66-4.79-7.35-14.74-8.53-20.47-2.26-10.95-2.21-21.87,1.28-32.55.48-1.46,1.39-.58.99-2.71-.07-.35.04-.77,0-1.14.56-.7,1.21-1.76,1.71-2.27,5.68-5.98,9.79-7.78,17.63-10.24.56.97,2.1.64,2.99.44,2.7-.6,19.05-5.67,20.22-6.82.29-.29.03-.94.1-1.02,1.9-2,4.18-2.58,6.26-3.98,5.05-3.4,11.15-11.15,11.35-17.45.03-.83-.54-1.24-.54-1.32-.11-2.75-.17-4.67-.85-7.4-.76-3.08-4.19-8.52-3.57-10.94.54-2.07,2.06-2.08,2.71-2.71,3.67-2.82,9.25-3.96,12.92-6.14,1.07-.64,1.46-1.55,1.87-1.82,2.77-1.89,5.86-3.71,8.53-5.69,2.93-2.18,3.52-2.81,5.69-5.69.53-.71,1.16-1.98,1.71-2.84s1.83-2.02,2.27-2.84c1.3.21,1.22-.65,1.62-1.48,1.94-4.04,2.1-5.39,2.93-9.32.34-1.62,1.56-4.46,1.72-6.55.2-2.59-.87-3.99-1.18-6.25-.17-1.27.47-2.68.36-3.43-.08-.56-5.52-7.8-6.26-8.84-2.95-4.15,1.65-2.84,3.79-3.4,4.49-1.17,10.86-3.64,16.09-3.93.79-.04,2.32.72,2.53.56.14-.12-.12-.91,0-1.14.1-.19-.04-.66.57-.57ZM170.02,129.91c2.69-3.79,5.75-8.18,1.96-12.48-3.15-3.57-8.79-2.99-9.78,1.66l.43,1.15c-.63,1.08-2.55,4.73-3.41,5.12-1,.45-2.16,1.69-3.41,3.41-.09.12.09.43,0,.57h-1.7s.57.57.57.57c-2.84,2.5-5.22,4.33-8.53,6.26l-5.8,1.77c-5.02,4.21-12.46,4.32-18.76,6.38-.57.19-4.68,2.05-4.86,2.24-.15.16-1.62,3.89-1.63,4.11-.07,1.43,1.01,2.85,2.04,3.7.52.44,2.24,1.47,2.84,1.71,2.73,1.06,5.57.44,8.53.57s3.34-.7,6.7-1.57c5.45-1.41,10.2-3.19,15.42-6.16l2.9-2.5c1.38-.83,4.36-2.98,5.69-3.98,2.75-2.06,4.79-3.97,6.82-6.82,1.27-1.77,2.66-3.83,3.98-5.69ZM249.07,120.25c-1.97-8.33-11.57-4.69-9.65,3.58.1.42.92.44,1.07.84,1.75,4.57,3.64,8.79,7.44,12.07.16.21.4.37.57.57,1.05,1.29,1.85,1.82,2.84,2.84.4.41.71.74,1.14,1.14,2.45,2.28,5.4,4.31,7.39,6.26,2.68,2.62,7.12,4.67,10.99,5.79.82.24,2.03,1.08,2.66-.11,1.47.47,10.77,2.29,10.8,2.84,0,.03-.37-.12-.57.28-.24.47,8.12.24,9.1.27,0-.29-.58-.52-.58-.56.11-.49.74-.81,1.14-1.14.09-.08.66.12.96-.16,1.28-1.15,1.62-3.89,1.31-5.53-.52-2.74-3.17-2.77-5.12-3.41.32-1.51-.75-1.13-1.7-1.4-6.17-1.79-10.7-3.22-16.34-5.99-1.46-.72-4.33-2.25-5.85-1.71-1.74-.99-4.1-2.29-5.69-3.41-5.72-4.05-7.88-7.77-11.94-13.08ZM263.85,164.6c-2.33-3.51-5.04-5.41-8.68-7.42-.37-.21-.38-1.01-.82-1.11-1.83-.4-7.11.98-7.56,3.41-.2.16-.39.38-.57.57-1.69,1.74-3.13,6.05-3.42,6.26-.39.29-1.5-1.02-1.71-.28,1.43,3.73-.15,7.56-.23,11.37-.02.94.13,7.36.22,7.87.07.39,1.02.29,1.14.77.78,3.01,1.35,6.13,2.77,9.08,2.28,4.75,10.59,11.27,15.72,12.01,3.35.48,5.12-2.58,8.83-1.59-1.49,7.51-4.81,20.88-3.83,28,1.37,10.03,12.11,16.95,21.29,11.35,17.41-10.63.71-37.41-8.35-48.45-.36-.44-1.3-.4-1.16-1.38.23-1.64,2.01-2.99,2.25-3.62,1.53-4.07,2.25-10.78,1.71-15.14-.09-.76-.79-3.14-1.23-3.61-.16-.17-3.93-2.36-4.41-1.28-5.21-2.35-7.36-3.28-11.94-6.82ZM154.67,159.49c-1.62,1.22-2.99,2.68-4.55,3.98l-3.68,1.72c-3.45,3.95-8.28,4.02-12.25,6.81-.18.13-.37.39-.57.57-.84.76-2.2,1.73-2.55,2.87-.27.88.25,1.62.13,2.38-.49,3.05-.58,5.63-.42,8.63,0,.2.87,2.12,1.28,3.31.52,1.52,1.75,3.26,2.13,4.99-.2.11-2.66,2.94-3.08,3.46-5.46,6.67-11.02,20.1-11.7,28.68-1.84,23.26,26.35,25.01,27.07,3.3.21-6.15-2.76-20.59-4.33-26.91,7.16,3.14,12.83,2.3,19.33-1.71,7.85-4.83,10.06-17.64,9.66-26.43-.07-1.56-1-8.47-1.53-9.82-.26-.65-1.32-1.05-1.87-1.85-3.81-5.52-6.39-9.02-13.08-3.98ZM201.87,212.94c-5.64.25-13.39,3.19-18.04,5.84-.53.3-3.15,3.24-4.14,3.83-.19.13-.35.4-.57.57l-4.26,2.27c-.42.54-.99,1.3-.29,1.71v.57c-.2.18-.37.38-.57.57s-.38.38-.57.57c-.39.39-.75.72-1.14,1.14-1.43,1.52-6.25,9.11-6.82,9.1-.04,0-.18-.9-.56-.57-.4.36-3.84,9.13-3.81,10.07.05,2.06,1.41,3.45,2.67,4.71,3.33,3.34,6.91,1.95,10.1-1.26.06-.06.54-1.23.56-1.32.14-.66-1.46-1.03,1.86-.84-.11-1.06-.65-2.01-.62-3.11.05-1.57,1.93-3.04.62-4.28.96-2.02,1.26-2.01,2.27-3.41,2.13-.47,2.09-1.66,2.84-2.84.09-.05.52.08.97-.16.91-.47,2.72-3.81,4.14-4.39,3.38-1.5,7-2.5,10.12-3.8.73-.3.69-1.2.76-1.23.35-.12,6.6-.63,7.06-.58,1.12.1,1.82.97,2.84,1.04.84.06,6.19-.88,6.51-.56v2.28c.19.21,2.32-.89,2.84-1.13,1.71-.21,3.33,1.65,4.44,2.22s2.62,1.05,3.52,1.19c2.2.35,2.48,1.4,3.98,2.84.09.09.7.72,1.14,1.14.2.19.38.38.57.57.38.39.76.76,1.14,1.14.19.19.38.38.57.57l2.78,4.44c1.45,4.99,5.07,16.26,12.13,13.03,1.01-.46,2.45-1.9,2.88-2.89.52-1.16-.18-1.43-.17-1.51.55-5.13-1.47-7.67-3.98-11.94-1.61-2.74-3.69-6.1-5.69-8.53-.45-.55-.83-.8-1.14-1.14-.35-.39-1.27-1.3-1.71-1.71-.8-.76-1.2-1.41-2.27-2.27-3.1-2.5-11.7-7.72-15.35-9.1-2.56-1.33-5.65-2.57-8.53-2.84-2.65-.25-6.38-.12-9.1,0Z" fill="#3c97bf"/><path d="M146.14,28.12c4.45,6.23,4.03,15.84.96,22.58-.14.32-1.3.44-1.41,1.12l-1.26,4.17c-6.73,8.34-14.52,10.23-23.32,15.35-3.68,2.14-5.51,3.23-8.53,6.26-.03.03-.35-.59-.81-.04-5.47,6.51-2.1,14.21.67,20.94l.14,9.25c-12,17.64-37.65,11.07-54.59,30.14l-.56-.57c.22,1.59-1.79,1.9-2.14,2.45s-.04,1.15-.14,1.53c-2.92,1.35-5.24,13.69-5.62,17.41-.59,5.83-.43,10.09-.07,15.88.07,1.09-.61,2.28,1.14,1.97.13,1.4.39,2.24.57,3.41-1.75,5.61,2.43,11.33,3.42,16.77,0,.71.52-.27.56-.28.33-.02.63.2.57.57.57,2.93,6.45,12.25,8.53,14.79l1.71,1.71c.54.57,1.75,1.81,2.27,2.27l1.14,1.14c7.57,6.08,18.17,8.52,25.29,14.8,6.8,5.99,9.75,15.79,16.22,21.88,11.68,11,42.77,15.97,36.7,37.82-1.75,6.31-6.28,10.36-10.53,14.77-1.68,1.75-3.46,3.29-5.12,5.12-2.97,3.27-6.01,7.16-8.53,10.8-1.22,1.77-2.39,3.14-3.41,5.12-.08.15.08.42,0,.57-9.32,11.51-8.76,26.41-7.96,40.38.04.62-.18,1.43.57,1.71v.57c-.03-.05-.99.22-1.15-.37l-.81-16.15c-7.59-2.2-14.13-7.03-21.35-9.93-1.1-.44-.35,1.01-1.15,1.44-.19-.54-.33-1.5-.57-2.27.61-1.26.16-3.96-.01-5.39-1.21-9.86-2.22-19.9-4.57-29.55.01-.6,1.48.06,1.17-.88-2.62-.18-1.94-3.65-2.46-5-.06-.17-2.14-1.22-1.53-2.98-.25.07-.51.58-.56.58-.73-.1-3.87-7.87-5.69-8.53-.08-.14.07-.41,0-.57-.8-1.77-2.67-3.66-3.98-5.12-.41-.46-.72-.73-1.14-1.14l-.57-1.14c-1.28-1.52-2.16-3.55-3.98-4.55l-5.12-7.39c-.07-.15.07-.41,0-.57-.78-1.71-1.63-3.68-2.84-5.12-.05-.18.05-.39,0-.57-.28-1.08-1.02-2.63-1.14-3.41l.57-19.33c.3-1.25.89-2.45,1.14-3.41,1.79-7,2.7-8.67,0-15.92-1.54-4.14-4-8.52-6.82-11.94-.07-.16.07-.41,0-.57-2.23-4.81-4.78-9.6-7.39-14.22-.05-.17.05-.4,0-.57-.35-1.14-.81-2.29-1.14-3.41,1.24-.56.13-1.76-.08-2.47-2.55-8.42-3.45-16.39-5.44-24.74-.24-1,.31-2.13-1.31-1.79-.52-2.44-.4-5.46-2.27-7.39-.03-.19.03-.39,0-.57-.65-3.68-6.29-8.93-9.1-11.37.88-.61-.05-1.89.11-2.96.61-3.97,3.49-9.11,4.79-12.02.53-1.2.55-1.61,1.35-2.94.76-1.25.82-1.31-.57-1.98,8.65-18.21,17.65-33.34,31.28-48.34l7.14-6.23,1.39-2.3c.19-.19.38-.38.57-.57l.57-.57c.19-.19.37-.38.57-.57,1.38-.49,2.47-1.47,3.4-2.56l-.56-.28c18.69-17.15,40.44-30.34,64.06-39.66,4,.6,6.06,2.22,8.73,4.97Z" fill="#729b3f"/><path d="M316.74,107.17h-.57c.04-.18-.03-.38,0-.57l.57.57Z" fill="#729b3f"/><path d="M292.29,30.97c32.59,15.24,64.75,46.23,82.46,77.34-1,.16.25,1.62.48,2.08,5.58,11.02,11.08,22.16,14.84,33.6.66,2,.39,5.25,2.31,6.97.7,2.48,1.67,4.84,2.27,7.39-1.05.55-.49,2-.32,2.87,1.6,8.24,3.16,15.71,3.74,24.16.07,1.09-.63,2.29,1.13,1.97.03.37-.03.76,0,1.14-2.22-.51-.65,2.93-1.14,3.41-.53.51-5.52.16-6.65-.15-2.77-.77-5.95-3.25-8.57-4.34-1.72-.71-3.88.12-3.24-2.88-.29.29-.76.53-1.16.49-.95-.09-1.72-1.53-1.98-.51-7.33-6.78-10.72-16.11-19.33-23.88l.57-.56h-1.14c-.2-.18-.37-.41-.57-.57-8.46-7.02-17.73-10.17-27.37-14.99-.46-.23-2-1.34-2.2-.36-2.52-1.53-4.69-3.68-6.82-5.69-.68-1.67-1.92-3.04-2.84-4.55-.16-.26-.34-.74-.57-1.14-.5-3.22-1.56-6.67-1.73-9.93-.24-4.73.86-8.83,1.16-13.39,1.93.38.83-1.07,1.14-2.27,1-3.92,1.31-5.8,1.14-9.98-.04-1.09.59-2.28-1.14-1.96-.2-1.15-.13-2.19-.57-3.41-.63-1.76-2.79-5.4-3.98-6.82-3.81-4.55-11.94-6.3-17.21-3.27-1,.57-1.28,1.38-1.55,1.56-2.22,1.45-4.49,3.33-6.82,4.55-.68-.76-1.88.56-3.14.61-4.23.16-9.11-2.08-12.79-4.02-.57-.45-.71-.68-1.14-1.14-2.71-5.2-1.44-11.13-1.7-16.77l-1.14.85c-.03-.56.03-1.14,0-1.71l.6-3.14-1.17-13.35c.3-4.36,1.42-8.08,3.41-11.94.08-.15-.08-.42,0-.57.84-1.53,5.05-7.39,6.25-8.65.42-.44,2.3-1.97,2.69-2.06,1.12-.27,11.98,4.17,13.81,5.03Z" fill="#729b3f"/><path d="M280.91,351.7c1.45.42.97,1.57,1.14,2.56.99,5.63,2.52,9.25,5.68,13.93,1.69,2.51,4.06,5.33,6.26,7.39.31.29.37,1.02,1.14,1.14-5.96,3.53-12.33,6.54-18.77,9.1-.6-1.11-1.84-.45-2.68-.12-13.48,5.35-28.25,9.89-42.56,9.87-.27,0-.23.83-.69,1.02-2.17.92-4-.42-6,.05-.45.1-.18,1.09-1.21,1.19-7.63.69-15.65-.26-23.34-.11-2.04.04-3.99.97-6.3.66-1.1-.15-.58-1.17-1.65-1.24-1.57-.11-3.02.69-4.54.65-7.59-.16-20.16-3.22-27.06-4.81-2.3-.53-4.04-2.04-4.29-2.04-4.58.08-8.28-2.01-12.87-3.8-.95-.37-3.58.64-3.87-2.45-.96-.3-.29,1.1-.8,1.1-5.01-1.18-8.73-4.27-13.92-5.14-.25-3.26.16-6.58-.1-9.85-.11-1.35-.5-4.25-.69-5.66-.22-1.6-2.56-4.6.17-6.04.73.25,1.53.36,2.27.57l3.41,1.14c30.46,14.36,88.63,11.65,120.68,2.68,4.33-1.21,28.52-9.63,30.59-11.78Z" fill="#277aa4"/><path d="M21.03,156.07c.41.25.4.91.57,1.14-.12,2.58.99,2.13,1.39,2.84.98,1.71,1.98,7.32,2.45,9.54,1.11,5.2,2.2,11.98,3.64,17.96.55,2.3.96,7.87,2.75,8.33,1.78,6.38,3.99,10.94,7.39,16.49,1.42,2.32,3.36,4.6,4.55,6.82l.76,4.07c2.16,3.94,2.15,9.48,1.48,13.77-.03.18-1.42.77-1.53,3.07-.07,1.51,1.34,3.19-.71,2.99l1.7.56c-.15.78-.74,4.53-1.14,4.55-.04,0,.08-.67-.56-.57.16,3.18-.24,6.51,0,9.67s.84,6.43,2.27,9.1c.04.18-.04.39,0,.57.88,4.02,3.15,6.65,4.17,10.62l2.09,1.32c2.58,3.75,5.83,7.16,8.53,10.8,1.43,1.93,3.25,3.82,4.55,5.69,1.39,2,2.9,4.62,3.98,6.82l3.41,10.24c0,.19,0,.38,0,.57.08,3.43.27,1.51.56,2.66.64,2.56,1.45,10.22,1.59,13.12.07,1.57-.48,4.05-.44,5.83-3.07-2.56-8.11-5.02-11.55-7.5-4.7-3.39-9.07-7.31-13.76-10.7-.82-.59-1.49-1.09-2.55-1.14-2.53-3.62-5.04-6.85-7.39-10.8.95-.16-.12-1.81-.35-2.21-8.26-14.5-16.04-30.81-19.88-47.27-.08-.34-.26-2.91-.22-3.06.2-.68,1.38.03,1.11-.91-.53-.04-1.3,0-1.71-.28-.86-.6-3-13.74-3.39-15.98-.18-1.06.64-2.27-1.15-1.95-.05-.56.05-1.15,0-1.71-1.08-11.71-1-24.08-1.13-36.12-.01-.96.36-2.53-.58-3.12.08-1.66.31-6.42.57-7.59.1-.44,1.08-.35,1.07-.63-.03-.63-.61-1.39-.51-2.59,1.32.26,1.25-.43,1.44-1.41.74-3.97,1.07-9.11,1.71-13.36.13-.87.79-2.28-.3-2.85.06-.21.52-.42.57-.57.71-2.43,2.22-5.16,2.28-7.96l2.27,1.14Z" fill="#3c97bf"/><path d="M293.42,355.11c-.04-.18.03-.38,0-.57h.57l-.57.57Z" fill="#58863c"/><path d="M392.94,256.73c-.03.18.03.38,0,.57l-5.53,15.25c-.35.54-.03,1.4-.16,1.81-.73,2.31-1.52,4.54-2.27,6.82-.06.17.06.4,0,.57l-.57.57c-.06.17.06.4,0,.57l-3.98,8.53c-.48.3-.75.76-1.14,1.14-1.22,1.21-1.67,2.02-2.49,3.48l-5.47,11.3c-13.13,20.96-32.44,41.44-52.71,55.63-2.53,1.77-10.93,7.85-13.26,8.41-1.85.44-4.54-2.95-5.68-4.32l-4.09-7.57c-.13-1.37-1.45-3.91-1.6-4.94-.31-2.17.39-6.05.09-8.44,32.28-18.48,59.05-46.29,74.9-80.06.79-1.69,1.3-3.53,1.77-5.33.61.04,2.85.2,2.85-.28l-2.85-.85c5.82.13,7.51-.56,12.51-2.84.41-.19.75-.37,1.14-.57.46-.24,1.36-.11,1.85-.57l4.4-3.41c.15-.06.38.05.57,0,1.49-.36,1.64-1.18,2.83-1.43-1.18,1.35-.81,4.03-1.13,5.98Z" fill="#58863c"/><path d="M293.99,354.54c.15,1.03,1.47,3.57,1.6,4.94l4.09,7.57c-2.55-3.07-5.39-8.02-6.26-11.94l.57-.57Z" fill="#729b3f"/><path d="M315.6,267.53c3.17-3.55,8.07-7.81,11.74-10.16,6.83-4.39,16.36-4.65,23.72-2.9.58.14.47,1.28,1.3,1.59,1.35.5,3.77.05,5.31.97.9.54.96,1.85,1.55,1.98,2.14.5,9.2,1.53,11.55,1.69-.47,1.8-.98,3.64-1.77,5.33-15.85,33.77-42.62,61.58-74.9,80.06.29,2.39-.41,6.27-.09,8.44h-.57c-2.22-12.58,7.24-15.73,10.24-25.59,1.19.05,1.6-.95,2.27-1.71,1.12-1.25,3.13-3.75,3.33-5.39,1.59-13.02-4.76-25.61-1.46-38.53l2.12-7.26c.28-.55.51-1.09.57-1.71.17.03.39.01.57,0,2.24-.18,1.42-1.8,1.83-2.43.85-1.27,2.25-1.52,2.15-3.83.17-.21.39-.37.57-.57Z" fill="#729b3f"/><path d="M391.24,203.27c1.48.38,1.09,1.17,1.97,1.2,1.8.07,3.85-1.06,5.99-.63,0,3.22,0,6.45,0,9.67,0,.38,0,.76,0,1.14,0,.19,0,.38,0,.57-.64,2.04-.99,4.94-1.17,7.09-.07.9-.27,2.59.6,3.14-1.11,6.44-6.33,12.43-10.8,17.06-.19.19-.38.38-.57.57-1.37.74-2.57,1.57-3.98,2.27-1.51.76-3.55,1.79-5.12,2.27-.31.09-.81-.09-1.14,0,6.05-13.96,10.42-28.57,11.94-43.79.68.1,1.94.2,2.27-.57Z" fill="#277aa4"/><path d="M88.13,345.44c.8-.43.04-1.88,1.15-1.44,7.22,2.9,13.76,7.73,21.35,9.93l.81,16.15c.16.6,1.12.32,1.15.37.16.27.07,3.17.57,3.98-.39.35-4.3-1.36-5.12-1.7-.33-.14-.73-.39-1.14-.57-.98-1.49-2.96-2.14-4.55-2.84-.35-.15-.59-.39-1.14-.57l-.57-.57c-.14-.72-2.7-2.96-3.41-3.98-3.2-4.62-4.79-8.6-6.82-13.65-.5-1.24-1.28-3.31-1.71-4.55-.05-.15-.49-.35-.57-.57Z" fill="#58863c"/><path d="M74.48,334.64c.42.35.93.39,1.14,1.14l1.7,13.08c-1.01.18-1.49-.68-2.27-1.13-.69-.4-1.07-.66-1.71-1.14,1.17-.3-.63-1.45-.91-1.68-1.56-1.35-2.28-2.19-3.62-3.73-.2-.23-1.52-1.97-1.73-.85-.83-.91-1.96-1.93-2.84-2.84-.19-.38-.38-.76-.57-1.14-.38-.77.16-1.38-1.71-1.71-.37-.38-.76-.75-1.14-1.14-.05-1.3-1.15-2.03-1.99-2.83l-.28.56c-4.8-5.38-7.91-10.14-11.94-15.92,1.06.05,1.74.55,2.55,1.14,4.69,3.39,9.06,7.3,13.76,10.7,3.44,2.48,8.48,4.94,11.55,7.5Z" fill="#277aa4"/><path d="M19.32,153.8c-1.51-.32-1.13.75-1.4,1.7-.69,2.39-1.46,4.88-1.44,7.4-.04.15-.51.36-.57.57-1.33,4.8-2.4,12.59-2.84,17.63-.11,1.2.48,1.96.51,2.59.01.28-.97.19-1.07.63-.27,1.16-.49,5.93-.57,7.59-.43,8.58.34,17.3-.02,25.9l1.73,13.34c.05.56-.05,1.15,0,1.71,1.9,19.43,10.98,44.62,19.9,61.99-.45,1.26-1.28-.84-1.44-1.12-7.26-13.25-11.36-26.61-15.13-40.57-.97-3.58-1.55-3.59-1.61-7.45,0-.32-.98-.25-1.12-.75-1.03-3.62-.87-7.62-1.37-11.15-3.29-23.14-3.12-43.69.85-66.54.91-5.26,2.76-10.13,4.48-15.15,1.07.06.88,1.35,1.13,1.7Z" fill="#221b28"/><path d="M151.82,18.45c.02-.36-.12-.74.03-1.09,4.52-.38,9.02-2.24,13.36-3.14,27.68-5.7,63.81-4.78,91.38,2.67,1.51.41,9.55,2.92,10.11,3.54,2.15,2.39-3.48,8.21-4.8,10.58-3.93,7.03-6.43,17.46-6.07,25.83.19,4.54,1.87,10.46,1.81,15.35-.02,1.7-.87,3.3-.66,5.13.14,1.26,1.08,1.97,1.13,2.81.08,1.43.14,3.31.75,5.01,1.22,3.43,3.74,6.67,6.88,8.48s7.29,3.25,10.66,4.12c5.7,1.46,8.39,1.9,13.85-.88,1.1-.56,2.84-1.62,4.39-2.43,1.22-.64,2.39-2.09,4.08-2.72,1.21-.46,2.5-.55,3.72-.92,1.59,2.29,4.13,3.3,4.6,6.47.13.89.51,6.08.42,6.69-.49,3.54-2.34,7.78-2.65,12.05-2.05,27.44,13.18,37.96,36.79,46.22l2.45,2.39c-7.96-4.42-17.46-7.01-25.11-12-1.57-1.02-2.94-3.54-5.03-3.92-1.32-1.56-3.95-5.1-5.12-6.82-2.58-5.21-3.83-9.56-4.55-15.35.09-3.21-.12-6.46,0-9.67.23-5.85,1.93-9.99,2.27-15.08.37-5.66-2.02-12.23-8.52-8.81-2.02,1.06-3.76,2.84-5.69,3.98-4.51,2.67-7.08,3.56-12.51,3.41-.19,0-.38.02-.57,0-3.82-1.8-9.56-2.92-13.08-5.12-1.24-.77-4.4-3.88-5.44-5.09-1.21-1.4.01-1.95-1.95-2.31-.45-1.12-2.27-6.4-2.27-7.11v-10.24c0-1.34-1.08-5.13-1.14-6.54-.31-7.18-.27-15.74,1.14-22.75.04-.18-.04-.39,0-.57,1.73-2.56,2.41-5.61,3.88-8.34,1.06-1.95,7.73-10,5.44-11.63-.9-.63-7.51-2.18-9.21-2.61-25.69-6.56-52.26-7.93-78.6-4.72-.61-.09-.46.38-.57.57-8.71,0-17.12,2.88-25.59,4.55Z" fill="#221b28"/><path d="M127.37,333.5c-3.76,6.72-5.62,15.64-5.69,23.32-.05,6.03,1.5,11.97,1.65,17.97.05,1.86-1.42,3.83.06,5.62.78.95,8.7,4.1,10.51,4.84,45.15,18.51,97.11,18.61,142.46.56,6.43-2.56,12.81-5.57,18.77-9.1.05,0,.15-.72.56-.57.19,1.26-.36,2.19-1.5,2.76-8.8,3.42-17.3,8.27-26.24,11.29-10.82,3.66-27.46,7.62-37.94,8.24-17.96,1.05-31.78,2.7-49.59.11-16.22-2.35-42.29-8.42-56.1-16.8-3.47-2.11-1.77-7.28-2.08-11-1.05-12.65-2.87-24.24,3.45-36.25.05-.09,1.44-1.91,1.68-1.01Z" fill="#221b28"/><path d="M269.54,37.22c-1.99,3.86-3.11,7.59-3.41,11.94-.38,5.53.28,11.01.57,16.49.03.57-.03,1.14,0,1.71.08,1.24.5,2.4.59,3.67.25,3.46-.91,9.36,1.28,12.1.25.31.91.09.97.15.43.46.56.69,1.14,1.14,4.45,3.51,10.51,6.23,15.92,3.41,2.34-1.22,4.6-3.1,6.82-4.55,5.37-2.66,9.26-3.1,14.79-.57-1.95,2.05-3.02-.56-3.21-.59-7.03-.95-10.21,2.05-15.46,5.06-.38.22-1.23.04-1.77.37-1.47.92-1.11,3.07-4.86,3.11-.86,0-6.07-.92-6.73-1.25-.86-.44-.83-1.54-1.3-1.58-.43-.04-1.08.68-1.91.31-.59-.26-2.07-2.17-2.88-2.85-.6-.51-1.96-.69-2.15-.98-.3-.48-2.17-5.31-2.25-6.03-.52-4.6.89-12.03-.14-16.21-.11-.45-1.01-.36-1.11-.78-1.11-4.61.98-16.32,2.78-20.52.68-1.59-.2-4.15,2.32-3.54Z" fill="#1d1e42"/><path d="M21.03,155.5c7.73,8.64,6.65,20.54,9.58,31.65,2.19,8.3,6.34,18.94,10.51,26.47,3.65,6.59,8.94,10.16,7.75,19.48-.41,3.17-2.07,7.27-2.7,10.39-2.95,14.56,2.79,30.92,12.43,42.49.58.7,3.52,1.89,2.24,3.73-2.7-3.65-5.95-7.05-8.53-10.8l-6.26-11.94c-.04-.18.04-.39,0-.57-.56-2.63-1.48-6.56-1.71-9.1-.26-2.91.19-6.14,0-9.1.4-.02.99-3.77,1.14-4.55,2.04-10.68,3.69-14.39-1.71-24.45-1.19-2.22-3.13-4.51-4.55-6.82l-7.39-16.49c-1.07-3.86-2.39-8.99-3.25-12.95-2-9.2-1.29-17.92-6.98-25.72-.17-.23-.16-.88-.57-1.14v-.57Z" fill="#221b28"/><path d="M304.8,264.69l-1.94,5.76c-6.85,10.34-5.73,23.82-5.52,36.63.02,1.07,1.2.57,1.27,1.66.08,1.32-.6,2.51-.58,3.5.12,6.26.78,10.02-3.18,15.58-.44.62-2.65,2.35-2.99,2.95-.45.77.15,1.81-.27,2.6-.26.5-3.94,3.74-4.4,4.55-6.24,11.05-2.26,26.09,5.07,34.69l1.73,2.97c-2.2-2.06-4.56-4.89-6.26-7.39-2.14-5.24-4.97-11.28-5.12-17.06-.11-4.27,1.59-8.53,2.84-12.51,2.69-2.78,4.88-6.89,6.82-10.24,2.74-1.76,3.17-4.09,3.98-6.82,2.17-7.36.45-9.23,0-15.92-.5-7.38-.58-13.72.57-21.04.03-.19-.03-.38,0-.57,1.26-7.36,3.76-13.18,7.96-19.33Z" fill="#221b28"/><path d="M55.72,197.02c.06-.37-.24-.59-.57-.57-1.92-5.4-3.11-10.84-3.98-16.49-.18-1.17-.44-2.02-.57-3.41-.03-.37.01-.76,0-1.14-.02-.63.17-1.43-.57-1.71-.3-7.13-.26-14.74,1.71-21.61v-.57c.61-2.29,1.46-4.6,2.27-6.82,1,.66.97,1.02.71,2.09-.53,2.2-2.23,4.16-2.74,6.98-2.81,15.46.87,28.43,3.73,43.25Z" fill="#1d1e42"/><path d="M65.38,295.4c1.5-1.69,1.95,2.14,2.45,2.97,4.67,7.89,8.31,16.83,8.98,26.31.1,1.43-1.44,5.17,1.08,3.7.13,1.33-1.13,2.42-1.08,3.71.07,2.15.82,7.02,1.16,9.59.18,1.42,2.87,10.61.78,10.58l-1.99-2.26c.58.54,1.49.95,1.99,1.7-.14-5.17-1.85-10.66-2.56-15.92-.4-3-.22-6.8-.64-9.89-.55-4.12-1.4-8.94-2.78-12.86,0-.19,0-.38,0-.57-.15-3.42-1.92-7.18-3.41-10.24-1.08-2.2-2.59-4.82-3.98-6.82Z" fill="#221b28"/><path d="M56.85,223.18c.88,5.33.63,10.6,0,15.92-.25.97-.84,2.16-1.14,3.41-1.46,6.14-1.5,13.14-.57,19.33.12.78.85,2.33,1.14,3.41-2.04.2-1.41.13-1.79-1.31-2.03-7.7-.89-16,.33-23.71.57-3.59,2.58-7.29,2.08-11.13-.14-1.05-1.07-.76-1.17-1.21-.31-1.39.17-3.14-.17-4.85-.62-3.13-4.09-8.72-5.53-11.82,2.82,3.42,5.28,7.8,6.82,11.94Z" fill="#1d1e42"/><path d="M399.77,192.47c-.22-1.26-.45-2.65-.57-3.98-.03-.37.03-.76,0-1.14-.92-9.86-2.27-19.35-4.55-29-.6-2.55-1.58-4.92-2.27-7.39-1.76-6.25-3.55-12.56-5.69-18.77,7.14,15.91,11.22,32.92,13.07,50.33.32,3.01,1.06,7.22,0,9.95Z" fill="#1d1e42"/><path d="M64.82,146.41c.04.36-.07.79,0,1.14-6.23,9.86-5.17,24.22-2.84,35.26,1.78,8.43,4.06,14.11,9.1,21.04.55.76,1.11,1.56,1.71,2.27l-4.39-3.57c-7.33-13.41-10.97-29.66-8.54-45.47.37-2.43,2.73-8.79,4.17-10.7.46-.62.78.07.8.03Z" fill="#221b28"/><path d="M119.98,327.81c-6.2,12.31-8.12,21.38-7.42,35.57.09,1.84,1.8,11.53,1.16,12.2-1.94-.42-5.26-.47-5.68-2.84.81.34,4.73,2.05,5.12,1.7-.5-.81-.41-3.71-.57-3.98v-.57l-.57-1.71c-.8-13.97-1.36-28.87,7.96-40.38Z" fill="#1d1e42"/><path d="M34.68,163.47c2.14,10.1,3.89,19.04,6.82,29,.33,1.13.78,2.27,1.14,3.41-1.47.33-1.11-.76-1.45-1.65-1.65-4.31-2.7-8.4-3.68-12.75-.1-.43-1.03-.35-1.12-.77-.19-.86.2-1.87,0-2.66-.13-.54-1.11-.33-1.14-.37-.27-.35,1.18-.96,1.15-1.98-.02-.44-1.1-.18-1.09-.53.04-6.28-2.09-13.07-2.9-19.09,1.88,1.93,1.76,4.96,2.27,7.39Z" fill="#1d1e42"/><path d="M380.43,199.29c2.75.94,7.68,2.65,10.21,3.16s7.45.3,9.34.9c1.48.47,1,7.47.92,9.3-.16,3.82-.89,12.26-1.84,15.79s-6.94,9.87-9.35,12.84c-.49.6.25,1.71-1.89,1.22,4.47-4.63,9.69-10.62,10.8-17.06.59-3.4.49-6.8.57-10.24,0-.19,0-.38,0-.57.55-.15.53-.66.57-1.14.22-2.93-.44-5.95.39-8.84-.05-.45-.55-.74-.95-.82-2.14-.43-4.19.7-5.99.63-.88-.03-.49-.82-1.97-1.2-3.7-.96-7.76-1.39-10.8-3.98Z" fill="#221b28"/><path d="M79.6,299.95c3.94,10.02,4.82,20.69,6.26,31.28-2.96.36-.84-.73-1.14-2.49-2.76-16.27-3.32-23.32-10.8-37.32,1.82.66,4.96,8.43,5.69,8.53Z" fill="#1d1e42"/><path d="M310.48,274.36c-.06.62-.29,1.16-.57,1.71-2,3.93-3.58,8.95-3.97,13.37-1.1,12.47,5.8,25.51,0,37.81-.68.76-1.09,1.75-2.27,1.71.96-3.16,1.86-2.76,2.67-5.01,5.26-14.58-7.24-31.82,2.84-47.75.46-.72.76-1.54.75-2.4.44-.14.46.56.56.57Z" fill="#1d1e42"/><path d="M147.84,265.26c3.01,1.42,4.46,4.64,6.82,6.82,5.12,8.75,4.87,19.51,0,28.43-.67,1.23-1.81,2.31-2.84,2.84-.65,1.71-.57,1.82-1.74,3.53-1.56,2.27-4.01,5-6.22,6.71,1.18-2.64,1.48-2,3.21-4.21s2.07-4.63,4.75-6.03c1.27-3.33,3.83-7.37,4.88-11.21.36-1.32,1.01-8.89.83-10.04-.07-.43-1.09-.3-1.14-.71-.99-7.2-3.56-11.08-8.54-16.15Z" fill="#221b28"/><path d="M79.6,299.95s.31-.5.56-.58c-.61,1.76,1.46,2.81,1.53,2.98.52,1.35-.16,4.82,2.46,5,.31.93-1.16.27-1.17.88,2.35,9.65,3.36,19.69,4.57,29.55.18,1.43.63,4.12.01,5.39-1.23-4.05-1.15-7.28-1.71-11.37-.03-.19.03-.38,0-.57-1.43-10.58-2.32-21.26-6.26-31.28Z" fill="#83b240"/><path d="M125.66,80.44c-.23.13-.94-.13-1.14,0-.12.08-.96,1.55-1.71,2.27-.65.62-2.17.63-2.71,2.71-.63,2.42,2.8,7.85,3.57,10.94.67,2.73.74,4.64.85,7.4-.99,7.87-5.4,13.37-10.8,18.77-2.08,1.4-4.36,1.98-6.26,3.98-4.3,1.38-8.31,3.34-12.64,4.7-3.49,1.1-7.19,1.6-10.67,2.69-7.84,2.46-11.95,4.26-17.63,10.24-.11-.63,1.92-3.86,2.1-4.03,6.06-5.61,19.12-7.77,26.3-10.02,8.8-2.75,19.22-7.58,24.17-14.4,2.26-3.11,3.12-5.22,3.24-8.83.01-.34,1.06-.22,1.08-.57.26-4.74-.73-9.96-2.35-14.61-.07-.21-1.62-1.83-1.64-1.96-.56-4.68.17-5.52,3.38-8.46.63-.57,1.65-.74,1.72-.81.1-.11-.09-.81,0-1.14l1.13,1.14Z" fill="#221b28"/><path d="M395.22,248.2c.3-.08.77.03,1.14,0-.96,1.21.02,2.25,0,3.07-.01.36-.99.28-1.1.75-2.34,9.92-4.62,17.38-7.61,26.18l-2.65,2.97c.76-2.29,1.55-4.52,2.27-6.82,2.28-5.11,4.73-11.55,5.69-17.06.03-.18-.03-.38,0-.57,1.64-2.19,1.82-5.86,2.27-8.53Z" fill="#1d1e42"/><path d="M353.13,254.45c.18.04.39-.05.57,0,5.48,2.9,10.75,4.98,17.06,5.12l2.85.85c0,.49-2.24.33-2.85.28-2.35-.16-9.41-1.19-11.55-1.69-.58-.14-.65-1.45-1.55-1.98-1.54-.92-3.95-.47-5.31-.97-.83-.3-.73-1.45-1.3-1.59-7.36-1.75-16.89-1.48-23.72,2.9-3.66,2.35-8.57,6.6-11.74,10.16,1.02-2.28,3.38-4.44,5.12-6.26l1.14-1.14c.18-.19.37-.39.57-.57,2.11-1.3,4.53-2.14,6.26-3.98.16-.06.4.06.57,0l1.71-1.14c.17-.05.39.05.57,0,10.32-3.06,11.49-2.46,21.61,0Z" fill="#83b240"/><path d="M376.45,184.51c.25-1.02,1.02.42,1.98.51.4.04.87-.21,1.16-.49-.64,2.99,1.53,2.16,3.24,2.88,2.62,1.09,5.81,3.57,8.57,4.34,1.13.32,6.12.67,6.65.15.49-.48-1.07-3.92,1.14-3.41.12,1.33.34,2.72.57,3.98.06.36-.09.84,0,1.14-4.47,0-8.87-.93-13.08-2.27-.08-.61-8.16-4.9-10.24-6.82Z" fill="#83b240"/><path d="M177.41,13.9c-.12.23.14,1.02,0,1.14-.21.17-1.74-.6-2.53-.56-5.23.29-11.59,2.75-16.09,3.93-2.14.56-6.74-.75-3.79,3.4.74,1.04,6.18,8.27,6.26,8.84.11.76-.54,2.16-.36,3.43.31,2.26,1.38,3.67,1.18,6.25-.16,2.09-1.38,4.93-1.72,6.55h-.57c1.85-10.06.54-17.07-5.69-25.02-1.32-1.68-2.4-1.31-2.27-3.41,8.47-1.67,16.88-4.56,25.59-4.55Z" fill="#43abd6"/><path d="M378.16,248.2c1.47-.5,5.11-1.41,5.12-2.84,1.41-.71,2.61-1.53,3.98-2.27-3.12,3.19-4.59,4.47-8.95,6.12-11.81,4.47-16.39-1.92-26.47-4.59-8.69-2.3-20.12-.63-27.86,3.57-.61.33-1.92,3.07-3.83,1.72,9.81-6.12,19.01-9.08,30.61-6.44,10.97,2.5,15.08,8.95,27.4,4.73Z" fill="#221b28"/><path d="M121.11,71.34l-7.74,6.48c-1.05,2.36-2.6,4.38-2.93,7.04-.89,7.21,6.54,13.97,3.7,21.34-.33.86-.93.87-1,.97,2.94-10.6-8.73-19.6-.57-29.57,3.02-3.02,4.85-4.12,8.53-6.26Z" fill="#1d1e42"/><path d="M144.43,55.99l1.26-4.17c.12-.68,1.27-.8,1.41-1.12,3.07-6.74,3.49-16.35-.96-22.58,7.62,7.84,4.61,20.03-1.71,27.87Z" fill="#83b240"/><path d="M28.99,124.23c1.39.68,1.32.73.57,1.98-.8,1.33-.82,1.74-1.35,2.94-1.3,2.91-4.18,8.05-4.79,12.02-.16,1.07.77,2.35-.11,2.96-.48-.42-1.68-.33-1.73-.9-.09-1.19,2.05-4.24,1.73-5.93,2.1-4.27,3.64-8.77,5.69-13.08Z" fill="#83b240"/><path d="M353.7,254.45c5.06,1.31,11.13,4.22,16.22,4.54,1.11.07,2.23.1,3.33-.07l10.02-2.2c-5,2.28-6.69,2.97-12.51,2.84-6.31-.14-11.58-2.22-17.06-5.12Z" fill="#1d1e42"/><path d="M353.13,254.45c-10.12-2.46-11.29-3.06-21.61,0-.33-1.52.77-1.11,1.68-1.41,6.17-2.08,11.77-2.5,17.92-.28.99.35,1.61.65,2,1.69Z" fill="#1d1e42"/><path d="M315.6,108.87c-.01.19.01.38,0,.57-.3,4.56-1.4,8.66-1.16,13.39.17,3.26,1.22,6.71,1.73,9.93-.2-.36-.91-.48-1.33-1.79-1.89-5.84-1.43-17,.76-22.67-.01.19.01.38,0,.57Z" fill="#1d1e42"/><path d="M316.74,95.23c.08.47.51,1.02.57,1.71-.96,1.06-.96,4.06,0,5.12-.1,1.19-.91,3.28-1.14,4.55-.03.18.04.39,0,.57-.07.35.07.79,0,1.14h-.57c.13-1.82.18-3.59.59-5.38l-.02-11.11c.44,1.22.37,2.26.57,3.41Z" fill="#1d1e42"/><path d="M159.78,46.89c-.55,2.97-2.52,8.14-3.98,10.8-.45.82-1.73,1.99-2.27,2.84l4.28-9.66c2.56-7,2.44-13.84.46-20.9l-4.16-8.11c6.22,7.95,7.54,14.97,5.69,25.02Z" fill="#221b28"/><path d="M50.03,210.67c-1-.26-1.29-.48-1.87-1.31-2.95-4.2-4.09-8.29-5.52-12.91,2.61,4.62,5.16,9.41,7.39,14.22Z" fill="#1d1e42"/><path d="M269.54,36.65c.2-1.01,1.21-3.61,1.66-4.31,1.01-1.56,3.86-1.65,2.89-5.37,1.98,1.81,3.97-2.21,4.24-2.2.6.02,5.78,1.39,6.7,1.69,1.43.47,4.35,2.11,6.54,3.02.08.03,1.86,1.47.71,1.48-1.83-.86-12.69-5.29-13.81-5.03-.38.09-2.27,1.62-2.69,2.06-1.2,1.26-5.42,7.12-6.25,8.65Z" fill="#1d1e42"/><path d="M76.19,335.77c.71,5.26,2.42,10.75,2.56,15.92-.5-.75-1.42-1.16-1.99-1.7-.19-.18-.39-.38-.57-.57-.43-.46-.73-1.19-1.14-1.71.78.45,1.26,1.31,2.27,1.13l-1.7-13.08h.57Z" fill="#298bba"/><path d="M85.86,331.79c.56,4.09.47,7.32,1.71,11.37.24.78.38,1.73.57,2.27.08.22.52.42.57.57.15,1.57.47,3.47,1.71,4.55,2.03,5.05,3.62,9.03,6.82,13.65-.25,1.27-1.83-1.61-1.94-1.76-1.62-2.24-2.75-4.15-3.91-6.35-3-5.68-6.34-15.96-6.69-22.32-.06-1.06-.47-2.33,1.16-1.99Z" fill="#1d1e42"/><path d="M380.43,199.29c3.04,2.59,7.11,3.02,10.8,3.98-.33.77-1.6.67-2.27.57-3.61-.54-6.62-2.68-10.32-3.49l-1.62-2.2c.86.43,2.42.8,3.41,1.14Z" fill="#46afd9"/><path d="M392.94,256.73c.32-1.94-.06-4.63,1.13-5.98-1.19.25-1.34,1.07-2.83,1.43.78-1.01,2.9-3.69,3.98-3.98-.46,2.67-.64,6.34-2.27,8.53Z" fill="#729b3f"/><path d="M112.58,77.6c-8.16,9.97,3.51,18.97.57,29.57-.12.18-.41.34-.57.57l-.14-9.25c-2.78-6.73-6.15-14.43-.67-20.94.46-.54.78.07.81.04Z" fill="#83b240"/><path d="M75.05,207.25c2.88,1.19,4.1,3.5,6.8,4.86,1.33.67,6.48,1.86,6.76,2.09.2.17-.05,1.06.47,1.61.36.39,7.79,4.66,8.89,5.22.82.42,2.24.27,2.57.55.3.26.13,1.47.65,1.93.41.36,2.01-.64,2.31-.34.1.1,0,1.8.43,2.7.63,1.34,2.7,2.91,3.78,4.18.2.23,1.89,2.06.91,2.22-4.53-6.34-8.81-9.2-15.35-13.08s-13.59-6.74-18.77-11.94c.17.05.41-.07.57,0Z" fill="#43abd6"/><path d="M19.32,153.8c.68.97,1.19,1.13,1.71,1.71v.57l-2.27-1.14c-.06,2.8-1.57,5.54-2.28,7.96-.02-2.52.75-5.02,1.44-7.4.27-.94-.11-2.02,1.4-1.7Z" fill="#46afd9"/><path d="M399.77,193.61s1.1.29.28.57c-4.9.4-9.39-.64-13.94-2.31.08-.24.58-.49.58-.54,4.21,1.35,8.61,2.28,13.08,2.27Z" fill="#1d1e42"/><path d="M134.19,324.97c.62,1.98-1.12,1.67-1.72,2.54-4.37,6.3-7.08,11.88-8.47,19.44l-.61,11.57c-.66-.39-1.22.04-1.71-1.71.07-7.67,1.92-16.6,5.69-23.32,1.73-3.09,4.54-6.37,6.82-9.1v.57Z" fill="#43abd6"/><path d="M386.69,132.19c2.13,6.2,3.93,12.51,5.69,18.77-1.92-1.72-1.66-4.97-2.31-6.97-3.75-11.44-9.26-22.58-14.84-33.6-.23-.45-1.48-1.92-.48-2.08,4.37,7.67,8.43,16.06,11.94,23.88Z" fill="#83b240"/><path d="M74.48,207.25c5.17,5.21,12.5,8.23,18.77,11.94-1.13-.59-3.15-.75-4.1-1.19-4.88-2.27-11.74-6.95-15.23-10.76h.57Z" fill="#221b28"/><path d="M355.98,159.49c-3.23-1.43-6-3.71-9.09-5.41-6.5-3.6-14.27-6.16-20.48-9.94.2-.98,1.74.13,2.2.36,9.64,4.82,18.91,7.97,27.37,14.99Z" fill="#83b240"/><path d="M137.61,74.75c-.41.28-.8,1.19-1.87,1.82-3.67,2.18-9.24,3.32-12.92,6.14.75-.73,1.58-2.19,1.71-2.27.2-.13.91.13,1.14,0,3.72-2.13,7.98-4.03,11.94-5.69Z" fill="#46afd9"/><path d="M23.3,137.31c.32,1.69-1.82,4.74-1.73,5.93.04.56,1.25.48,1.73.9,2.81,2.44,8.45,7.7,9.1,11.37l-2.68-2.45c-.31-5.1-7.74-6.37-9.03-10.61-.5-1.66.52-.99.65-1.3.68-1.7,1.26-2.41,1.96-3.84Z" fill="#1d1e42"/><path d="M371.33,307.34l5.47-11.3c.82-1.46,1.27-2.28,2.49-3.48-2.03,5.17-5.02,10.09-7.96,14.79Z" fill="#729b3f"/><path d="M137.04,257.87c-5.69-2.99-11.66-5.18-16.99-8.88-.13-.09-3.06-1.66-1.77-1.92,5.61,4.42,13.05,6.52,18.77,10.8Z" fill="#221b28"/><path d="M59.13,270.95c-2.66-.28-2.4-3.43-2.84-5.12,1.22,1.44,2.06,3.41,2.84,5.12Z" fill="#1d1e42"/><path d="M119.98,327.24c1.02-1.98,2.19-3.35,3.41-5.12l.56.28c-1.45,1.45-1.81,4.62-3.97,4.84Z" fill="#1d1e42"/><path d="M64.25,278.91c-.23-.13-1.15.25-1.6-.09-.33-.25-3.08-6.38-3.52-7.31l5.12,7.39Z" fill="#1d1e42"/><path d="M384.41,282.89c-1.08,2.98-1.95,6.13-3.49,9.06-.22-.02-.46-.55-.49-.53l3.98-8.53Z" fill="#1d1e42"/><path d="M328.68,255.59c-1.73,1.84-4.15,2.68-6.26,3.98,3.07-2.72,2.84-2.65,6.26-3.98Z" fill="#1d1e42"/><path d="M57.99,137.88c-1.11,1.25-1.19,2.65-2.84,3.41-.38,1.44-.66,2.1-1.14,3.41-.81,2.23-1.66,4.53-2.27,6.82-.05.17-.32.29,0,.57-1.97,6.87-2.01,14.48-1.71,21.61.03.62-.17,1.43.57,1.71.01.38-.03.76,0,1.14-1.74.32-1.07-.88-1.14-1.97-.36-5.78-.52-10.05.07-15.88.38-3.73,2.7-16.07,5.62-17.41.1-.38-.2-1,.14-1.53s2.36-.86,2.14-2.45l.56.57Z" fill="#83b240"/><path d="M13.64,232.84c1.79-.33.97.89,1.15,1.95.39,2.23,2.53,15.37,3.39,15.98.41.29,1.18.24,1.71.28.27.95-.92.23-1.11.91-.04.15.14,2.72.22,3.06,3.84,16.46,11.62,32.77,19.88,47.27.23.4,1.3,2.05.35,2.21-1.88-3.16-4.01-6.41-5.69-9.67-8.93-17.37-18.01-42.55-19.9-61.99Z" fill="#43abd6"/><path d="M313.9,148.68c2.08.38,3.46,2.9,5.03,3.92,7.65,5,17.15,7.58,25.11,12,3.08,1.71,5.94,4,8.53,6.26h-.57c-10.46-9.54-29.37-11.82-38.1-22.18Z" fill="#46afd9"/><path d="M315.03,268.1c.1,2.31-1.3,2.56-2.15,3.83-.42.62.41,2.25-1.83,2.43.49-2.49,2.42-4.38,3.98-6.26Z" fill="#83b240"/><path d="M377.02,247.63c.33-.09.83.09,1.14,0v.57c-12.32,4.22-16.43-2.24-27.4-4.73-11.6-2.64-20.8.32-30.61,6.44-2.57,1.6-4.7,3.83-7.39,5.12,2.78-2.91,5.83-5.62,9.28-7.78,1.82-1.13,6.08-2.02,6.65-4.16,1.03-.23.36.96.56,1.13,1.13.93,1.04-1,1.52-1.13,4.42-1.23,13.83-2.11,18.27-1.32,10.62,1.88,15.53,9.16,27.98,5.87Z" fill="#43abd6"/><path d="M67.09,340.32c.21-1.12,1.53.61,1.73.85,1.34,1.54,2.06,2.38,3.62,3.73.27.24,2.08,1.38.91,1.68-.98-.74-1.83-1.6-2.84-2.27-.74-.78-1.69-1.62-2.27-2.27-.43-.48-.7-1.23-1.14-1.71Z" fill="#298bba"/><path d="M304.8,264.69c-4.2,6.15-6.7,11.97-7.96,19.33-1.5-1.46-.05-3.61.31-5.12,1.79-7.62,6.08-13.98,11.63-19.9-.85,2.01-2.63,3.7-3.98,5.69Z" fill="#46afd9"/><path d="M60.84,333.5c-.77-.79-1.44-1.33-2.27-2.27l.28-.56c.84.8,1.94,1.53,1.99,2.83Z" fill="#298bba"/><path d="M312.19,84.99c-1.57-.37-2.44-1.57-3.98-2.27-5.52-2.53-9.41-2.1-14.79.57.28-.18.56-.99,1.55-1.56,5.28-3.03,13.4-1.28,17.21,3.27Z" fill="#83b240"/><path d="M146.14,69.07l5.69-5.69c-2.16,2.88-2.75,3.51-5.69,5.69Z" fill="#47b3de"/><path d="M134.19,324.97v-.57c.76-.91,1.57-1.52,2.27-2.27-.08,1.36-1.18,2.22-2.27,2.84Z" fill="#47b3de"/><path d="M390.67,252.18l-4.4,3.41c-.5.46-1.39.33-1.85.57,1.29-1.15,4.32-3.63,5.71-4.28.41-.19.51.31.54.3Z" fill="#1d1e42"/><path d="M147.27,264.69c-2.88-1.45-5.45-3.49-8.17-5.22-.72-.46-1.82-.18-1.5-1.6,3.3,1.71,7.07,4.27,9.67,6.82Z" fill="#221b28"/><path d="M73.35,346.58c.64.48,1.01.73,1.71,1.14.41.51.71,1.24,1.14,1.71-2.5-.92-3.96-3.28-5.69-5.12,1.02.68,1.87,1.54,2.84,2.27Z" fill="#221b28"/><path d="M319.58,138.44c-.28-.27-1.15-.26-1.53-.73-.57-.7-.85-2.74-1.87-3.54l.56-.28c.92,1.51,2.16,2.88,2.84,4.55Z" fill="#1d1e42"/><path d="M73.91,290.85c-1.73-.9-3.97-3.27-3.98-5.12,1.31,1.46,3.18,3.34,3.98,5.12Z" fill="#1d1e42"/><path d="M67.09,340.32c.43.47.71,1.22,1.14,1.71-1.17-.98-3.24-2.53-4.05-3.72-.45-.66.09-.79.07-.83.88.92,2.01,1.94,2.84,2.84Z" fill="#221b28"/><path d="M106.9,372.17c-1.44-.64-4.85-1.63-4.55-2.84,1.59.7,3.57,1.36,4.55,2.84Z" fill="#1d1e42"/><path d="M74.48,206.69v.57h-.57c-.38-.41-.91-.87-1.14-1.14-.6-.71-1.16-1.52-1.71-2.27v-.57c.66.87,2.51,2.62,3.41,3.41Z" fill="#47b3de"/><path d="M68.8,67.36l-1.39,2.3-7.14,6.23c2.68-2.95,5.67-5.73,8.53-8.53Z" fill="#83b240"/><path d="M321.86,260.14l-1.14,1.14c.34-.36.84-.83,1.14-1.14Z" fill="#1d1e42"/><path d="M61.97,334.64c1.87.32,1.33.94,1.71,1.71-.95-.25-1.2-1.18-1.71-1.71Z" fill="#298bba"/><path d="M68.8,284.59c-.44-.43-1.82-.81-.57-1.14l.57,1.14Z" fill="#1d1e42"/><path d="M139.88,318.71c-.07.08.14.65-.14.98-.49.57-2.07,1.17-2.7,1.87.88-.91,1.49-2.28,2.84-2.84Z" fill="#47b3de"/><path d="M70.5,65.65c.94-.89,1.91-1.99,2.84-2.84l.56.28c-.94,1.09-2.02,2.07-3.4,2.56Z" fill="#83b240"/><path d="M101.21,368.76c-.29-.09-.78.07-1.14-.01-.06-.33.58-.52.57-.56l.57.57Z" fill="#1d1e42"/><path d="M357.11,175.41l-5.12-4.55h.57c1.77,1.55,3.04,2.7,4.55,4.55Z" fill="#47b3de"/><path d="M330.96,254.45l-1.71,1.14c.1-.04.29-.7,1.71-1.14Z" fill="#1d1e42"/><path d="M356.55,160.05h1.14s-.57.57-.57.57c-.2-.18-.37-.4-.57-.57Z" fill="#83b240"/><path d="M384.41,282.32l.57-.57c-.13.38-.56.53-.57.57Z" fill="#1d1e42"/><path d="M131.92,311.32c1.66-1.83,3.44-3.37,5.12-5.12l-5.12,5.12Z" fill="#83b240"/><path d="M65.95,213.51l-1.71-1.71c.29.35,1.2,1.17,1.71,1.71Z" fill="#83b240"/><path d="M69.37,66.79c.19-.19.38-.38.57-.57l-.57.57Z" fill="#83b240"/><path d="M69.37,216.92l-1.14-1.14c.44.39.9.95,1.14,1.14Z" fill="#83b240"/><path d="M154.67,159.49l5.16-1.52c3.41-.05,5.64,2.8,6.89,5.68,3.79,8.74,3.35,23.5-1.36,31.84-5.82,10.31-20,11.92-27.16,2.22-3.25-4.4-5.39-11.47-5.74-16.92-.11-1.75,1.14-7.54,2.76-8.17,5.13-.8,10.15-3.7,13.76-7.45.39-.32.72-1.35,1.14-1.71,1.56-1.3,2.93-2.76,4.55-3.98Z" fill="#25243c"/><path d="M181.96,221.47s-.09.47.28.56c12.4-8.39,27.91-9.77,41.45-3.33,3.91,1.86,8.24,5.33,11.16,6.75.85.42,1.43,1.27,2.27,1.71.43.41,1.36,1.32,1.71,1.71l1.14,1.14c2,2.43,4.07,5.79,5.69,8.53-1.24.4.07,1.65.35,2.21,1.62,3.28,4.27,7.35,2.37,11.03-1.38,2.66-6.54,2.01-8.4-.16-2.86-3.84-3.3-8.5-6.26-12.51,1.14-.24-.16-1.32-.44-1.66-1.29-1.53-2.68-2.1-3.54-2.89-.2-.18-.37-.4-.57-.57-1.03-.9-2.66-3.17-3.84-3.96-10.53-7.08-24.6-7.77-35.78-1.81-.12.06-3.27,1.43-1.9,1.8-.64.48-1.29,1-1.71,1.71-.53.22-1.4.39-1.71.57-.76.44-.72.7-1.14,1.14-.94,1-1.15,1.98-1.71,2.84-.22.13-.88-.12-1.14,0-1.62.3-3.33,3.38-4.07,4.74-1.36,2.48-3.7,10.31-5.04,11.45-1.99,1.67-7.31,1.49-7.92-1.7-1.33-6.98,6-14.99,9.08-20.74.39-.42.74-.74,1.14-1.14l.57-.57c.19-.18.37-.39.57-.57.43-.39.85-.89,1.14-1.14.2-.17.35-.4.57-.57.17-.14,2.61-.51,1.14-1.14.61-.51,1.26-1.37,1.71-1.71.22-.16.38-.44.57-.57.3-.2,1.75-.88,2.27-1.14Z" fill="#25243c"/><path d="M249.07,120.25c4.06,5.31,6.22,9.03,11.94,13.08l3.8,3.3c6.23,3.37,12.71,6.75,19.52,8.8,2.26.68,5.67.49,7.73,1.49,1.59.77,1.53,2.67,3.64,2.33.31,1.63-.03,4.37-1.31,5.53-.31.28-.87.09-.96.16-10.3.6-20.97-1.86-30.08-6.6-3.81-1.98-7.03-5.13-10.87-7.05-.42-.39-.74-.73-1.14-1.14l-2.84-2.84c-.17-.2-.41-.36-.57-.57-2.3-3-7.84-12.13-7.86-15.63-.01-2.66,1.42-4.71,4.22-4.81,3.31-.12,2.88,2.26,3.96,4.01.38.61.8-.08.82-.05Z" fill="#25243c"/><path d="M159.22,125.93c.45-.46,1.16-.7,1.71-1.41,2.38-3.08,4.09-10.72,9.32-7.05,2.8,1.97,1.18,6.53.21,9.18-1.48,4.07-4.44,6.33-6.12,10.09-1.13,1.09-2.3,2.29-3.41,3.41l-11.37,7.68c-8.6,3.94-19.67,8.37-29.31,7.14-1.9-.24-4.03-4.37-2.99-6.18,1.2-2.1,10.69-3.63,13.41-4.5,6.85-2.21,21.46-9.27,25.14-14.95.09-.13-.09-.45,0-.57h.57c2.67.36,1.32-.59,1.71-1.71.29-.82.79-.78,1.14-1.14Z" fill="#25243c"/><path d="M278.64,196.45c9.06,11.04,25.76,37.82,8.35,48.45-9.18,5.61-19.91-1.31-21.29-11.35-.98-7.12,2.34-20.49,3.83-28,.14-.69.32-1.67.57-2.27.14-.34.37-.87.57-1.14.71-.95,2.33-1.95,3.41-3.41.54-.72,2.05-2.44,2.27-2.84l2.27.57ZM276.69,204.43c-.67.21-.85,1.19-1.08,1.79-1.77,4.67-4.93,19.72-4.72,24.54.5,11.83,13.85,14.1,17.45,4.11,2.54-7.05-1.18-17.37-4.86-23.65-.93-1.58-4.89-7.39-6.79-6.8Z" fill="#277aa4"/><path d="M135.33,194.74c1.11,2.09,6.56,7.48,6.82,8.53,1.57,6.33,4.54,20.76,4.33,26.91-.72,21.71-28.91,19.96-27.07-3.3.68-8.58,6.23-22.01,11.7-28.68.42-.52,2.88-3.35,3.08-3.46s.8.07,1.14,0ZM134.52,203.87c-4.24.96-10.42,19.25-10.59,23.56-.54,14.03,15.18,16.32,16.52,4.56.68-5.99-1.84-20.84-4.27-26.44-.28-.65-.71-1.9-1.67-1.68Z" fill="#277aa4"/><path d="M177.98,13.34c26.33-3.22,52.91-1.85,78.6,4.72,1.7.43,8.31,1.98,9.21,2.61,2.29,1.62-4.39,9.68-5.44,11.63-1.48,2.73-2.15,5.78-3.88,8.34,1.56-7.31,6.73-12.58,9.1-19.33-.26-.28-6.58-.92-7.52-1.18-4.67-1.29-9.77-3.37-15.09-4.36-18.3-3.37-39.74-4.11-58.44-2.45-2.07.18-4.14,1.83-6.52.02Z" fill="#46afd9"/><path d="M217.22,227.16c-.22.13-.39.48-.57.57-.52.25-2.66,1.34-2.84,1.13v-2.28c-.33-.32-5.68.62-6.52.56-1.01-.08-1.72-.94-2.84-1.04-.46-.04-6.72.46-7.06.58-.07.02-.03.92-.76,1.23-3.12,1.29-6.74,2.3-10.12,3.8-.16.07-.41-.07-.57,0,.42-.7,1.06-1.23,1.71-1.71,8.07-6.02,20.47-5.97,29.57-2.84Z" fill="#43abd6"/><path d="M155.8,129.35c-3.68,5.68-18.29,12.74-25.14,14.95-2.71.87-12.2,2.4-13.41,4.5-1.04,1.81,1.09,5.94,2.99,6.18,9.64,1.24,20.71-3.2,29.31-7.14l11.37-7.68c-.59.59-1.15,1.6-1.71,2.27-1.33,1-4.31,3.15-5.69,3.98-6.25,3.76-17.86,8.8-25.02,9.67-2.65.32-5.8-.23-8.53,0-.6-.23-2.32-1.27-2.84-1.71-1.03-2.24-1.06-6.16,1.17-7.65,2.36-1.57,10.84-2.73,14.29-3.91,4.62-1.59,9.33-4.19,13.55-6.64,3.31-1.92,5.69-3.75,8.53-6.26.2-.18.39-.37.57-.57h.57Z" fill="#221b28"/><path d="M304.23,116.84h-.57c-.04-.27-.3-.51-.57-.57.2-4.51,1.38-8.4,2.16-12.35.13-.68.07-6.9-.12-7.57-.14-.5-2.03-2.49-2.45-2.68-1.78-.83-3.25.13-4.71-.71,6.5-3.42,8.89,3.14,8.52,8.81-.33,5.09-2.04,9.23-2.27,15.08Z" fill="#43abd6"/><path d="M263.85,164.6c4.58,3.55,6.73,4.47,11.94,6.82,1.22.55,2.05.31,3.12,1.72,3.74,4.95.26,17.65-2.55,22.73-.22.4-1.74,2.12-2.27,2.84l1.78-5.24c2.73-4.49,4.9-13.06,2.89-18.47-1.21-3.25-2.11-1.88-4.06-2.77-7.64-3.46-10.71-6.66-17.05-11.43-.34-.26-1.99-1.85-2.16-1.93-.39-.18-3.65-1.17-3.87-1.17-1.05-.05-.7.98-1.56,1.37-.42.19-1.16-.18-1.43,0-1.53,1.05-3.62,5.04-4.14,6.9-2.39,8.66-1.89,21.71,2.71,29.75,1.47,2.58,6.57,6.6,9.38,7.7,5.12,2.01,9.35.59,14.11-1.31-.2.27-.43.8-.57,1.14-26.32,10.13-33.8-25.79-23.88-43.22.18-.19.37-.41.57-.57,7.67-6.08,10.51.42,15.64,4.57.5.41,1.23.4,1.42.55Z" fill="#221b28"/><path d="M121.68,356.82c.49,1.75,1.04,1.31,1.71,1.71.21.12.39.51.57.57-2.73,1.44-.39,4.44-.17,6.04.2,1.41.59,4.3.69,5.66.26,3.27-.15,6.59.1,9.85,5.18.88,8.9,3.96,13.92,5.14.51,0-.15-1.4.8-1.1.29,3.09,2.92,2.08,3.87,2.45,4.59,1.79,8.29,3.88,12.87,3.8.25,0,1.99,1.51,4.29,2.04,6.9,1.59,19.46,4.65,27.06,4.81,1.53.03,2.97-.76,4.54-.65,1.07.07.55,1.1,1.65,1.24,2.3.31,4.26-.62,6.3-.66,7.69-.15,15.71.79,23.34.11,1.03-.09.76-1.08,1.21-1.19,2-.46,3.83.88,6-.05.46-.19.41-1.02.69-1.02,14.32.02,29.08-4.52,42.56-9.87.84-.33,2.08-.99,2.68.12-45.34,18.05-97.31,17.95-142.46-.56-1.8-.74-9.72-3.89-10.51-4.84-1.48-1.79-.02-3.76-.06-5.62-.15-6.01-1.7-11.95-1.65-17.97Z" fill="#298bba"/><path d="M210.97,214.08c2.65.35,6.06.77,8.53,1.71,3.65,1.38,12.26,6.6,15.35,9.1v.57c-2.92-1.43-7.24-4.89-11.16-6.75-13.54-6.44-29.05-5.06-41.45,3.33-.36-.09-.25-.57-.28-.56,6.25-4.4,12.36-6.53,19.9-7.39,4.03-.46,5.03-.54,9.1,0Z" fill="#221b28"/><path d="M154.67,159.49c6.69-5.04,9.27-1.54,13.08,3.98,3.47,10.22,3.6,23.84-2.38,33.16-1.21,1.88-3,2.99-3.88,4.94-6.51,4-12.17,4.84-19.33,1.71-.26-1.05-5.72-6.44-6.82-8.53-.59-1.11-2.07-5.07-2.45-6.37-1.41-4.91-1.72-11.2.74-15.81.2-.18.39-.44.57-.57,2.05-.55,4.88-1.22,6.76-2.05s6.41-3.44,8.02-4.77c-3.6,3.75-8.63,6.66-13.76,7.45-1.62.63-2.88,6.42-2.76,8.17.35,5.45,2.49,12.51,5.74,16.92,7.16,9.7,21.33,8.09,27.16-2.22,4.71-8.34,5.15-23.1,1.36-31.84-1.25-2.88-3.48-5.73-6.89-5.68l-5.16,1.52Z" fill="#221b28"/><path d="M275.79,171.43c.48-1.08,4.25,1.11,4.41,1.28.45.47,1.14,2.85,1.23,3.61.54,4.36-.18,11.08-1.71,15.14-.23.62-2.01,1.97-2.25,3.62-.14.98.79.93,1.16,1.38l-2.27-.57c2.81-5.08,6.28-17.79,2.55-22.73-1.07-1.41-1.9-1.17-3.12-1.72Z" fill="#43abd6"/><path d="M62.54,182.8h-.57c-2.33-11.04-3.38-25.4,2.84-35.26.4,2.12-.51,1.24-.99,2.71-3.49,10.68-3.54,21.59-1.28,32.55Z" fill="#47b3de"/><path d="M246.22,160.05c-9.92,17.43-2.44,53.35,23.88,43.22-.25.61-.43,1.59-.57,2.27-3.71-1-5.48,2.07-8.83,1.59-5.14-.74-13.45-7.26-15.72-12.01-1.42-2.96-1.99-6.07-2.77-9.08-.12-.48-1.08-.37-1.14-.77-.09-.51-.24-6.94-.22-7.87.09-3.8,1.67-7.63.23-11.37.2-.74,1.31.58,1.71.28.29-.22,1.73-4.53,3.42-6.26Z" fill="#43abd6"/><path d="M255.32,63.95c.06,1.41,1.14,5.2,1.14,6.54v10.24c0,.71,1.83,5.99,2.27,7.11,1.96.36.74.9,1.95,2.31,1.05,1.21,4.21,4.32,5.44,5.09v.57c-3.2-1.85-6.05-4.6-7.39-7.96-2.09-.38-.58-.31-1.15-1.83-.22-.59-1.01-.46-1.29-1.15-.69-1.64.86-5.81-2.1-4.98-.13-1.24,1.02-1.84,1.07-3.09.14-3.97-.42-8.81-.5-12.83h.57Z" fill="#43abd6"/><path d="M167.75,163.47c.55.8,1.62,1.2,1.87,1.85.53,1.35,1.46,8.26,1.53,9.82.4,8.79-1.81,21.6-9.66,26.43.88-1.95,2.67-3.06,3.88-4.94,5.97-9.32,5.85-22.95,2.38-33.16Z" fill="#43abd6"/><path d="M266.7,136.74c8.42,4.78,14.98,6.16,23.88,9.1,1.95.64,4.6.67,5.12,3.41-2.11.34-2.05-1.56-3.64-2.33-2.06-1-5.47-.81-7.73-1.49-6.81-2.05-13.29-5.43-19.52-8.8l-3.8-3.3c1.59,1.12,3.94,2.42,5.69,3.41Z" fill="#221b28"/><path d="M135.33,194.74c-.33.07-.94-.11-1.14,0-.38-1.72-1.61-3.47-2.13-4.99-.41-1.19-1.27-3.11-1.28-3.31-.15-3-.06-5.59.42-8.63.12-.76-.41-1.49-.13-2.38.35-1.14,1.72-2.11,2.55-2.87-2.46,4.61-2.15,10.9-.74,15.81.37,1.3,1.86,5.26,2.45,6.37Z" fill="#43abd6"/><path d="M154.67,272.08c.08.08.76-.25,1.18.35,3.23,4.6,4.27,15.09,3.37,20.29-.07.39-1.05.31-1.36,1.63-.77,3.21-.39,1.22-1.56,3.56-.73,1.47.91,2.03-1.63,2.59,4.87-8.92,5.12-19.69,0-28.43Z" fill="#46afd9"/><path d="M252.48,141.29c3.83,1.92,7.06,5.06,10.87,7.05,9.11,4.74,19.78,7.2,30.08,6.6-.4.33-1.02.65-1.14,1.14h-7.96c-.03-.56-9.33-2.38-10.8-2.84-4.87-1.54-8.96-3.86-13.65-5.69-1.99-1.95-4.94-3.98-7.39-6.26Z" fill="#221b28"/><path d="M146.14,136.17c-4.22,2.45-8.93,5.06-13.55,6.64-3.45,1.18-11.93,2.34-14.29,3.91-2.23,1.49-2.19,5.41-1.17,7.65-1.03-.86-2.11-2.27-2.04-3.7.01-.22,1.48-3.94,1.63-4.11.18-.2,4.29-2.06,4.86-2.24,6.3-2.05,13.74-2.17,18.76-6.38l5.8-1.77Z" fill="#43abd6"/><path d="M255.32,63.95h-.57c-.11-6.12-.61-11.65.07-17.84.16-1.48.45-3.86,1.64-4.9-1.41,7.01-1.44,15.57-1.14,22.75Z" fill="#46afd9"/><path d="M107.47,126.5c-.08.08.19.73-.1,1.02-1.17,1.14-17.52,6.22-20.22,6.82-.89.2-2.43.53-2.99-.44,3.48-1.09,7.18-1.6,10.67-2.69,4.33-1.36,8.34-3.32,12.64-4.7Z" fill="#46afd9"/><path d="M296.84,284.59c-1.15,7.32-1.07,13.66-.57,21.04h-.57c-.08-1.37-.57-3.57-.57-4.27v-11.37c0-2.6.34-.94.56-1.8.41-1.58-.95-4.07,1.14-3.6Z" fill="#46afd9"/><path d="M153.53,146.41l-2.9,2.5c-5.22,2.98-9.97,4.75-15.42,6.16-3.36.87-3.76,1.7-6.7,1.57v-.57c7.16-.86,18.77-5.91,25.02-9.67Z" fill="#46afd9"/><path d="M176.28,242.51c1.31,1.23-.57,2.71-.62,4.28-.04,1.1.51,2.05.62,3.11-3.32-.18-1.72.18-1.86.84-.02.09-.49,1.25-.56,1.32-3.18,3.21-6.77,4.6-10.1,1.26.26.21,3.19,1.15,3.71,1.18,5.65.28,6.9-7.99,8.8-11.99Z" fill="#43abd6"/><path d="M303.66,116.84c.43,2.94.16,6.36.57,9.67.72,5.79,1.97,10.15,4.55,15.35-5.58-8.24-6.12-15.84-5.69-25.59.27.06.53.3.57.57Z" fill="#47b3de"/><path d="M201.87,212.94v1.14c-7.54.86-13.65,2.99-19.9,7.39-.53.26-1.98.93-2.27,1.14.99-.6,3.61-3.53,4.14-3.83,4.64-2.65,12.4-5.58,18.04-5.84Z" fill="#43abd6"/><path d="M282.05,351.13h.57c.14,5.78,2.98,11.82,5.12,17.06-3.16-4.68-4.7-8.3-5.68-13.93-.17-.99.31-2.14-1.14-2.56.23-.24-.59-1.87,1.14-.57Z" fill="#298bba"/><path d="M170.02,129.91c1.82-3.93,5.02-12.03-1.11-13.96-4.76-1.5-4.64,1.49-6.28,4.3l-.43-1.15c.99-4.65,6.63-5.23,9.78-1.66,3.8,4.3.73,8.69-1.96,12.48Z" fill="#43abd6"/><path d="M273.52,153.23c-.63,1.19-1.84.34-2.66.11-3.87-1.12-8.3-3.17-10.99-5.79,4.69,1.83,8.78,4.14,13.65,5.69Z" fill="#43abd6"/><path d="M249.64,250.47c-1.25,3.99-5.95,5.43-9.08,2.52-.55-.51-.44-1.18-.59-1.38,1.86,2.17,7.03,2.82,8.4.16,1.91-3.67-.75-7.75-2.37-11.03-.28-.56-1.59-1.82-.35-2.21,2.51,4.27,4.53,6.81,3.98,11.94Z" fill="#221b28"/><path d="M285.46,338.62c-1.26,3.98-2.95,8.24-2.84,12.51h-.57c-.87-2.27.94-10.94,2.41-12.39.31-.31.93-.05,1-.12Z" fill="#46afd9"/><path d="M266.7,136.74c1.52-.54,4.39.99,5.85,1.71,5.64,2.76,10.17,4.19,16.34,5.99.94.27,2.02-.11,1.7,1.4-8.91-2.94-15.47-4.32-23.88-9.1Z" fill="#46afd9"/><path d="M296.27,321.56c.05-.21-.37-1.1-.26-1.77.88-5.46-.01-8.81-.31-14.15h.57c.45,6.69,2.17,8.56,0,15.92Z" fill="#43abd6"/><path d="M160.35,46.89c-.83,3.93-.99,5.28-2.93,9.32-.4.83-.32,1.69-1.62,1.48,1.46-2.67,3.44-7.84,3.98-10.8h.57Z" fill="#46afd9"/><path d="M170.02,129.91c-1.32,1.85-2.72,3.92-3.98,5.69-.5.41-1.27.71-1.71,1.14,1.68-3.76,4.63-6.02,6.12-10.09.97-2.65,2.59-7.21-.21-9.18-5.23-3.67-6.94,3.98-9.32,7.05-.54.7-1.26.95-1.71,1.41v-.57c.86-.39,2.78-4.04,3.41-5.12,1.64-2.81,1.52-5.8,6.28-4.3,6.13,1.93,2.93,10.04,1.11,13.96Z" fill="#221b28"/><path d="M150.12,163.47c-.42.35-.75,1.38-1.14,1.71-1.61,1.33-6.08,3.91-8.02,4.77s-4.71,1.5-6.76,2.05c3.96-2.79,8.79-2.85,12.25-6.81l3.68-1.72Z" fill="#43abd6"/><path d="M113.72,122.52c5.4-5.39,9.82-10.9,10.8-18.77,0,.07.57.48.54,1.32-.2,6.3-6.3,14.05-11.35,17.45Z" fill="#47b3de"/><path d="M233.71,239.1c2.96,4.01,3.4,8.67,6.26,12.51.15.2.04.87.59,1.38,3.13,2.91,7.83,1.47,9.08-2.52,0,.08.69.35.17,1.51-.44.98-1.88,2.43-2.88,2.89-7.07,3.23-10.69-8.04-12.13-13.03l-2.78-4.44c.61.63,1.02.77,1.71,1.71Z" fill="#46afd9"/><path d="M62.54,182.8c1.18,5.73,4.87,15.68,8.53,20.47v.57c-5.04-6.93-7.32-12.61-9.1-21.04h.57Z" fill="#46afd9"/><path d="M246.79,159.49c.45-2.43,5.73-3.81,7.56-3.41.45.1.45.91.82,1.11,3.63,2.01,6.34,3.9,8.68,7.42-.19-.15-.92-.14-1.42-.55-5.13-4.15-7.97-10.65-15.64-4.57Z" fill="#43abd6"/><path d="M210.97,212.94v1.14c-4.07-.54-5.07-.46-9.1,0v-1.14c2.72-.12,6.45-.25,9.1,0Z" fill="#47b3de"/><path d="M292.29,96.93c1.13.39-1.66,1.86-1.77,1.92-3.55,1.83-6.71,3.27-10.74,1.49,5.43.15,8-.75,12.51-3.41Z" fill="#47b3de"/><path d="M249.07,120.25s-.44.66-.82.05c-1.08-1.75-.65-4.13-3.96-4.01-2.79.1-4.23,2.15-4.22,4.81.02,3.51,5.56,12.64,7.86,15.63-3.79-3.28-5.69-7.51-7.44-12.07-.15-.4-.98-.42-1.07-.84-1.93-8.27,7.68-11.91,9.65-3.58Z" fill="#221b28"/><path d="M292.29,156.07s.57.26.58.56c-.98-.03-9.34.2-9.1-.27.2-.4.57-.25.57-.28h7.96Z" fill="#47b3de"/><path d="M186.51,231.71c-1.42.58-3.24,3.92-4.14,4.39-.46.24-.88.11-.97.16-.76,1.18-.71,2.38-2.84,2.84.34-.47,1-2.51,1.71-2.84.26-.12.92.13,1.14,0,.56-.87.76-1.85,1.71-2.84l1.14-1.14c.3-.17,1.17-.35,1.71-.57.16-.07.41.07.57,0Z" fill="#46afd9"/><path d="M217.22,227.16c1.4.48,2.58.75,4,1.4.83.38,3.6,1.4,3.39,2.58-.91-.15-2.39-.6-3.52-1.19s-2.73-2.43-4.44-2.22c.18-.08.35-.44.57-.57Z" fill="#46afd9"/><path d="M128.51,156.07v.57c-2.96-.13-5.8.49-8.53-.57,2.73-.23,5.88.32,8.53,0Z" fill="#47b3de"/><path d="M165.47,239.1c-.89,3.94-4.18,6.6-3.29,10.96.09.46,1.35,3.07,1.58,3.26-1.26-1.26-2.62-2.66-2.67-4.71-.02-.94,3.41-9.71,3.81-10.07.38-.33.52.57.56.57Z" fill="#46afd9"/><path d="M219.5,215.78c-2.47-.93-5.88-1.35-8.53-1.71v-1.14c2.88.27,5.97,1.52,8.53,2.84Z" fill="#46afd9"/><path d="M172.3,230c-3.08,5.76-10.42,13.77-9.08,20.74.61,3.19,5.94,3.37,7.92,1.7,1.35-1.14,3.69-8.97,5.04-11.45.75-1.36,2.45-4.44,4.07-4.74-.71.33-1.37,2.37-1.71,2.84-1.01,1.4-1.31,1.39-2.27,3.41-1.9,4-3.16,12.27-8.8,11.99-.52-.03-3.45-.97-3.71-1.18-.23-.19-1.49-2.8-1.58-3.26-.89-4.35,2.4-7.01,3.29-10.96.57.01,5.4-7.57,6.82-9.1Z" fill="#221b28"/><path d="M179.12,223.18c-.45.34-1.1,1.19-1.71,1.71-.4.34-.96.49-1.14,1.14-.22.17-.37.4-.57.57l-1.14.57c-.7-.4-.13-1.17.29-1.71l4.26-2.27Z" fill="#43abd6"/><path d="M229.73,234.55c.86.79,2.26,1.37,3.54,2.89.28.33,1.58,1.41.44,1.66-.69-.94-1.1-1.08-1.71-1.71-.19-.19-.38-.38-.57-.57l-1.14-1.14c-.19-.19-.37-.38-.57-.57v-.57Z" fill="#221b28"/><path d="M292.29,328.38c.86-1.48,3.71-5.71,3.98-6.82-.81,2.74-1.24,5.07-3.98,6.82Z" fill="#46afd9"/><path d="M129.64,360.8l-3.41-1.14c1.9.53,1.51.24,3.41,1.14Z" fill="#43abd6"/><path d="M279.21,100.34c-3.73-.31-9.83-2.68-13.08-4.55v-.57c3.52,2.2,9.26,3.32,13.08,5.12Z" fill="#46afd9"/><path d="M166.04,135.6c-2.04,2.85-4.08,4.76-6.82,6.82.55-.68,1.12-1.68,1.71-2.27,1.11-1.12,2.29-2.32,3.41-3.41.44-.42,1.21-.73,1.71-1.14Z" fill="#47b3de"/><path d="M187.65,230c-1.37-.36,1.78-1.73,1.9-1.8,11.17-5.96,25.25-5.27,35.78,1.81,1.18.79,2.81,3.07,3.84,3.96h-.57c-1.5-1.45-1.78-2.49-3.98-2.84.21-1.18-2.56-2.2-3.39-2.58-1.43-.65-2.6-.92-4-1.4-9.1-3.13-21.5-3.18-29.57,2.84Z" fill="#221b28"/><path d="M229.16,233.98c.19.17.37.39.57.57v.57c-.44-.41-1.04-1.05-1.14-1.14h.57Z" fill="#47b3de"/><path d="M159.22,125.37v.57c-.35.35-.85.32-1.14,1.14l-1.71,1.71h-.57c1.25-1.73,2.41-2.96,3.41-3.41Z" fill="#47b3de"/><path d="M155.24,129.35c-.18.2-.37.39-.57.57l-.57-.56h1.14Z" fill="#47b3de"/><path d="M251.34,140.15c-1-1.02-1.8-1.56-2.84-2.84l2.84,2.84Z" fill="#221b28"/><path d="M239.97,230l-1.14-1.14c.3.34.69.59,1.14,1.14Z" fill="#47b3de"/><path d="M75.05,207.25c-.16-.07-.39.05-.57,0v-.57c.2.18.39.37.57.57Z" fill="#25243c"/><path d="M237.12,227.16c-.85-.43-1.42-1.29-2.27-1.71v-.57c1.08.87,1.47,1.51,2.27,2.27Z" fill="#47b3de"/><path d="M231.44,236.83c-.38-.38-.76-.75-1.14-1.14l1.14,1.14Z" fill="#47b3de"/><path d="M174.57,227.73v-.57l1.14-.57c-.29.25-.71.75-1.14,1.14Z" fill="#221b28"/><path d="M173.43,228.86c.19-.19.37-.38.57-.57l-.57.57Z" fill="#221b28"/><path d="M34.68,163.47c1.61-.34,1.07.79,1.31,1.79,1.98,8.34,2.89,16.32,5.44,24.74.22.71,1.32,1.91.08,2.47-2.93-9.96-4.69-18.9-6.82-29Z" fill="#83b240"/><path d="M55.15,261.85c-.93-6.2-.89-13.2.57-19.33l-.57,19.33Z" fill="#83b240"/><path d="M56.85,239.1c.63-5.33.88-10.59,0-15.92,2.7,7.25,1.79,8.92,0,15.92Z" fill="#83b240"/><path d="M55.15,196.45s-.56.99-.56.28c-.98-5.44-5.17-11.16-3.42-16.77.87,5.66,2.06,11.09,3.98,16.49Z" fill="#83b240"/><path d="M112.58,369.9c-.75-.28-.53-1.08-.57-1.71l.57,1.71Z" fill="#58863c"/><path d="M399.2,187.35c-1.76.32-1.06-.88-1.13-1.97-.58-8.45-2.14-15.92-3.74-24.16-.17-.87-.73-2.32.32-2.87,2.28,9.65,3.63,19.14,4.55,29Z" fill="#83b240"/><path d="M269.54,83.28c-.06-.06-.72.16-.97-.15-2.2-2.73-1.03-8.64-1.28-12.1-.09-1.27-.52-2.44-.59-3.67l1.14-.85c.27,5.65-1.01,11.57,1.7,16.77Z" fill="#83b240"/><path d="M266.7,65.65c-.29-5.48-.95-10.97-.57-16.49l1.17,13.35-.6,3.14Z" fill="#83b240"/><path d="M316.74,95.23c1.72-.32,1.09.87,1.14,1.96.17,4.18-.14,6.05-1.14,9.98l-.57-.57c.23-1.27,1.03-3.36,1.14-4.55.13-1.48.12-3.63,0-5.12-.06-.68-.49-1.24-.57-1.71Z" fill="#83b240"/><path d="M316.74,107.17c-.31,1.21.8,2.66-1.14,2.27.01-.19-.01-.38,0-.57.27-.08.51-.3.57-.57.07-.34-.07-.79,0-1.14h.57Z" fill="#83b240"/><path d="M286.6,87.83c-5.41,2.82-11.48.1-15.92-3.41,3.67,1.94,8.56,4.18,12.79,4.02,1.26-.05,2.46-1.37,3.14-.61Z" fill="#83b240"/><path d="M31.83,195.88c-1.8-.46-2.2-6.03-2.75-8.33-1.44-5.97-2.53-12.75-3.64-17.96-.47-2.22-1.47-7.83-2.45-9.54-.41-.71-1.52-.26-1.39-2.84,5.69,7.8,4.98,16.51,6.98,25.72.86,3.97,2.18,9.09,3.25,12.95Z" fill="#46afd9"/><path d="M45.48,243.65l-1.7-.56c2.05.2.64-1.48.71-2.99.11-2.3,1.5-2.89,1.53-3.07.67-4.29.68-9.82-1.48-13.77l-.76-4.07c5.4,10.06,3.75,13.77,1.71,24.45Z" fill="#46afd9"/><path d="M13.64,231.14l-1.73-13.34c.36-8.6-.41-17.31.02-25.9.94.59.57,2.16.58,3.12.13,12.04.05,24.41,1.13,36.12Z" fill="#47b3de"/><path d="M76.19,335.77h-.57c-.21-.75-.71-.78-1.14-1.14-.04-1.79.51-4.27.44-5.83-.14-2.9-.94-10.56-1.59-13.12-.29-1.15-.48.77-.56-2.66,1.37,3.92,2.23,8.74,2.78,12.86.41,3.09.23,6.88.64,9.89Z" fill="#46afd9"/><path d="M15.91,163.47c1.09.57.43,1.98.3,2.85-.63,4.25-.96,9.39-1.71,13.36-.19.99-.12,1.68-1.44,1.41.45-5.04,1.51-12.83,2.84-17.63Z" fill="#46afd9"/><path d="M44.34,248.2c.19,2.96-.26,6.19,0,9.1h-.57c-.24-3.15.17-6.49,0-9.67.65-.1.52.57.56.57Z" fill="#47b3de"/><path d="M46.05,266.4c-1.43-2.67-2.05-6.08-2.27-9.1h.57c.23,2.54,1.14,6.47,1.71,9.1Z" fill="#46afd9"/><path d="M46.05,266.97l6.26,11.94-2.09-1.32c-1.01-3.97-3.29-6.6-4.17-10.62Z" fill="#46afd9"/><path d="M39.23,212.37c-3.4-5.55-5.62-10.11-7.39-16.49l7.39,16.49Z" fill="#47b3de"/><path d="M72.78,312.46l-3.41-10.24c1.49,3.06,3.26,6.82,3.41,10.24Z" fill="#46afd9"/><path d="M387.25,274.36c.13-.41-.19-1.27.16-1.81l5.53-15.25c-.96,5.51-3.41,11.95-5.69,17.06Z" fill="#729b3f"/><path d="M305.93,327.24c5.81-12.3-1.09-25.34,0-37.81.39-4.42,1.97-9.44,3.97-13.37l-2.12,7.26c-3.29,12.92,3.05,25.51,1.46,38.53-.2,1.64-2.21,4.13-3.33,5.39Z" fill="#83b240"/><path d="M398.63,225.45c-.88-.56-.68-2.24-.6-3.14.18-2.16.53-5.06,1.17-7.09-.08,3.43.02,6.84-.57,10.24Z" fill="#298bba"/><path d="M399.77,213.51h-.57c0-3.22,0-6.45,0-9.67.4.08.9.37.95.82-.82,2.9-.16,5.92-.39,8.84Z" fill="#3c97bf"/><path d="M383.27,245.36c0,1.43-3.65,2.34-5.12,2.84v-.57c1.56-.48,3.61-1.52,5.12-2.27Z" fill="#3c97bf"/><path d="M399.2,214.65c0-.38,0-.76,0-1.14h.57c-.04.48-.02.98-.57,1.14Z" fill="#298bba"/><path d="M90.41,350.56c-1.23-1.07-1.56-2.98-1.71-4.55.42,1.24,1.21,3.31,1.71,4.55Z" fill="#729b3f"/><path d="M50.6,175.41c-.74-.27-.54-1.08-.57-1.71.74.28.54,1.08.57,1.71Z" fill="#729b3f"/><path d="M51.74,152.09c-.32-.28-.05-.4,0-.57v.57Z" fill="#729b3f"/><path d="M304.23,126.5c-.41-3.31-.14-6.73-.57-9.67h.57c-.12,3.21.09,6.46,0,9.67Z" fill="#277aa4"/><path d="M317.31,102.05c-.96-1.06-.96-4.06,0-5.12.12,1.49.13,3.64,0,5.12Z" fill="#25243c"/><path d="M176.28,226.02c.17-.65.74-.8,1.14-1.14,1.48.63-.97,1-1.14,1.14Z" fill="#221b28"/><path d="M183.1,233.41c.42-.44.38-.7,1.14-1.14l-1.14,1.14Z" fill="#221b28"/><path d="M158.08,127.07c-.39,1.11.96,2.07-1.71,1.71l1.71-1.71Z" fill="#221b28"/><path d="M270.68,202.14c-4.76,1.9-8.98,3.32-14.11,1.31-2.81-1.1-7.9-5.12-9.38-7.7-4.6-8.04-5.09-21.09-2.71-29.75.51-1.85,2.6-5.85,4.14-6.9.27-.19,1.01.19,1.43,0,.85-.39.51-1.42,1.56-1.37.22,0,3.48,1,3.87,1.17.17.08,1.82,1.67,2.16,1.93,6.34,4.77,9.42,7.97,17.05,11.43,1.95.88,2.85-.48,4.06,2.77,2.01,5.41-.17,13.98-2.89,18.47l-1.78,5.24c-1.08,1.46-2.7,2.46-3.41,3.41Z" fill="#25243c"/><path d="M276.69,204.43c1.9-.59,5.86,5.22,6.79,6.8,3.68,6.27,7.4,16.59,4.86,23.65-3.59,9.99-16.94,7.71-17.45-4.11-.21-4.81,2.95-19.87,4.72-24.54.23-.6.4-1.58,1.08-1.79Z" fill="#6bbed4"/><path d="M134.52,203.87c.96-.22,1.38,1.03,1.67,1.68,2.43,5.6,4.95,20.45,4.27,26.44-1.34,11.75-17.06,9.47-16.52-4.56.17-4.31,6.34-22.6,10.59-23.56Z" fill="#6bbed4"/></g></svg>